<svg width="15" height="12" viewBox="0 0 15 12" fill="none" xmlns="http://www.w3.org/2000/svg">
<path opacity="0.6" d="M14.5493 5.96826C14.5493 5.646 14.4175 5.30908 14.2051 5.104L9.72998 0.63623C9.48828 0.387207 9.19531 0.262695 8.91699 0.262695C8.21387 0.262695 7.75244 0.746094 7.75244 1.37598C7.75244 1.73486 7.91357 2.00586 8.1333 2.21826L9.72266 3.80029L10.8726 4.8623L9.42969 4.78906H2.00293C1.26318 4.78906 0.765137 5.25781 0.765137 5.96826C0.765137 6.67139 1.26318 7.14746 2.00293 7.14746H9.42969L10.8726 7.07422L9.72266 8.13623L8.1333 9.71094C7.91357 9.92334 7.75244 10.1943 7.75244 10.5532C7.75244 11.1831 8.21387 11.6665 8.91699 11.6665C9.19531 11.6665 9.48828 11.542 9.72998 11.3003L14.2051 6.83252C14.4175 6.62012 14.5493 6.2832 14.5493 5.96826Z" fill="white"/>
</svg>
