<svg xmlns="http://www.w3.org/2000/svg" xmlns:xlink="http://www.w3.org/1999/xlink" width="400" zoomAndPan="magnify" viewBox="0 0 300 299.999988" height="400" preserveAspectRatio="xMidYMid meet" version="1.0"><defs><clipPath id="00f48e2905"><path d="M 97.964844 90 L 202.214844 90 L 202.214844 210 L 97.964844 210 Z M 97.964844 90 " clip-rule="nonzero"/></clipPath></defs><path fill="#d9d9d9" d="M 172.128906 170 C 171.863281 170 171.605469 169.972656 171.347656 169.921875 C 171.089844 169.871094 170.835938 169.796875 170.59375 169.695312 C 170.351562 169.59375 170.121094 169.472656 169.902344 169.324219 C 169.683594 169.179688 169.480469 169.015625 169.292969 168.828125 C 169.109375 168.644531 168.941406 168.441406 168.796875 168.222656 C 168.648438 168.003906 168.527344 167.773438 168.425781 167.53125 C 168.324219 167.289062 168.25 167.039062 168.199219 166.78125 C 168.148438 166.523438 168.121094 166.261719 168.121094 166 L 168.121094 162 C 168.121094 161.476562 168.070312 160.953125 167.96875 160.4375 C 167.863281 159.925781 167.710938 159.421875 167.511719 158.9375 C 167.308594 158.453125 167.0625 157.992188 166.769531 157.554688 C 166.476562 157.117188 166.144531 156.714844 165.773438 156.34375 C 165.402344 155.972656 164.996094 155.640625 164.558594 155.347656 C 164.121094 155.054688 163.660156 154.808594 163.171875 154.609375 C 162.6875 154.40625 162.1875 154.257812 161.671875 154.152344 C 161.152344 154.050781 160.632812 154 160.105469 154 C 159.839844 154 159.585938 154.050781 159.339844 154.152344 C 159.09375 154.253906 158.878906 154.398438 158.691406 154.585938 C 158.503906 154.773438 158.355469 154.988281 158.253906 155.234375 C 158.152344 155.480469 158.101562 155.734375 158.101562 156 C 158.101562 156.265625 158.152344 156.519531 158.253906 156.765625 C 158.355469 157.011719 158.503906 157.226562 158.691406 157.414062 C 158.878906 157.601562 159.09375 157.746094 159.339844 157.847656 C 159.585938 157.949219 159.839844 158 160.105469 158 C 160.371094 158 160.628906 158.027344 160.886719 158.078125 C 161.144531 158.128906 161.398438 158.203125 161.640625 158.304688 C 161.882812 158.40625 162.113281 158.527344 162.332031 158.675781 C 162.550781 158.820312 162.753906 158.984375 162.941406 159.171875 C 163.125 159.355469 163.292969 159.558594 163.4375 159.777344 C 163.585938 159.996094 163.707031 160.226562 163.808594 160.46875 C 163.910156 160.710938 163.984375 160.960938 164.035156 161.21875 C 164.089844 161.476562 164.113281 161.738281 164.113281 162 L 164.113281 166 C 164.113281 167.148438 164.351562 168.246094 164.824219 169.292969 C 165.300781 170.339844 165.96875 171.242188 166.832031 172 C 165.96875 172.757812 165.300781 173.660156 164.824219 174.707031 C 164.351562 175.753906 164.113281 176.851562 164.113281 178 L 164.113281 182 C 164.113281 182.261719 164.089844 182.523438 164.035156 182.78125 C 163.984375 183.039062 163.910156 183.289062 163.808594 183.53125 C 163.707031 183.773438 163.585938 184.003906 163.4375 184.222656 C 163.292969 184.441406 163.125 184.644531 162.941406 184.828125 C 162.753906 185.015625 162.550781 185.179688 162.332031 185.324219 C 162.113281 185.472656 161.882812 185.59375 161.640625 185.695312 C 161.398438 185.796875 161.144531 185.871094 160.886719 185.921875 C 160.628906 185.972656 160.371094 186 160.105469 186 C 159.839844 186 159.585938 186.050781 159.339844 186.152344 C 159.09375 186.253906 158.878906 186.398438 158.691406 186.585938 C 158.503906 186.773438 158.355469 186.988281 158.253906 187.234375 C 158.152344 187.480469 158.101562 187.734375 158.101562 188 C 158.101562 188.265625 158.152344 188.519531 158.253906 188.765625 C 158.355469 189.011719 158.503906 189.226562 158.691406 189.414062 C 158.878906 189.601562 159.09375 189.746094 159.339844 189.847656 C 159.585938 189.949219 159.839844 190 160.105469 190 C 160.632812 190 161.152344 189.949219 161.671875 189.847656 C 162.1875 189.742188 162.6875 189.59375 163.171875 189.390625 C 163.660156 189.191406 164.121094 188.945312 164.558594 188.652344 C 164.996094 188.359375 165.402344 188.027344 165.773438 187.65625 C 166.144531 187.285156 166.476562 186.882812 166.769531 186.445312 C 167.0625 186.007812 167.308594 185.546875 167.511719 185.0625 C 167.710938 184.574219 167.863281 184.074219 167.96875 183.5625 C 168.070312 183.046875 168.121094 182.523438 168.121094 182 L 168.121094 178 C 168.121094 177.738281 168.148438 177.476562 168.199219 177.21875 C 168.25 176.960938 168.324219 176.710938 168.425781 176.46875 C 168.527344 176.226562 168.648438 175.996094 168.796875 175.777344 C 168.941406 175.558594 169.109375 175.355469 169.292969 175.171875 C 169.480469 174.984375 169.683594 174.820312 169.902344 174.675781 C 170.121094 174.527344 170.351562 174.40625 170.59375 174.304688 C 170.835938 174.203125 171.089844 174.128906 171.347656 174.078125 C 171.605469 174.027344 171.863281 174 172.128906 174 C 172.394531 174 172.648438 173.949219 172.894531 173.847656 C 173.140625 173.746094 173.355469 173.601562 173.546875 173.414062 C 173.734375 173.226562 173.878906 173.011719 173.980469 172.765625 C 174.082031 172.519531 174.132812 172.265625 174.132812 172 C 174.132812 171.734375 174.082031 171.480469 173.980469 171.234375 C 173.878906 170.988281 173.734375 170.773438 173.546875 170.585938 C 173.355469 170.398438 173.140625 170.253906 172.894531 170.152344 C 172.648438 170.050781 172.394531 170 172.128906 170 Z M 172.128906 170 " fill-opacity="1" fill-rule="nonzero"/><path fill="#d9d9d9" d="M 128.050781 162 C 128.050781 161.738281 128.074219 161.476562 128.125 161.21875 C 128.175781 160.960938 128.253906 160.710938 128.355469 160.46875 C 128.453125 160.226562 128.578125 159.996094 128.722656 159.777344 C 128.871094 159.558594 129.035156 159.355469 129.222656 159.171875 C 129.410156 158.984375 129.609375 158.820312 129.828125 158.675781 C 130.046875 158.527344 130.28125 158.40625 130.523438 158.304688 C 130.765625 158.203125 131.015625 158.128906 131.273438 158.078125 C 131.53125 158.027344 131.792969 158 132.054688 158 C 132.320312 158 132.578125 157.949219 132.824219 157.847656 C 133.070312 157.746094 133.285156 157.601562 133.472656 157.414062 C 133.660156 157.226562 133.804688 157.011719 133.90625 156.765625 C 134.007812 156.519531 134.058594 156.265625 134.058594 156 C 134.058594 155.734375 134.007812 155.480469 133.90625 155.234375 C 133.804688 154.988281 133.660156 154.773438 133.472656 154.585938 C 133.285156 154.398438 133.070312 154.253906 132.824219 154.152344 C 132.578125 154.050781 132.320312 154 132.054688 154 C 131.53125 154 131.007812 154.050781 130.492188 154.152344 C 129.976562 154.257812 129.476562 154.40625 128.988281 154.609375 C 128.503906 154.808594 128.042969 155.054688 127.605469 155.347656 C 127.167969 155.640625 126.761719 155.972656 126.390625 156.34375 C 126.015625 156.714844 125.683594 157.117188 125.390625 157.554688 C 125.101562 157.992188 124.851562 158.453125 124.652344 158.9375 C 124.449219 159.425781 124.296875 159.925781 124.195312 160.4375 C 124.09375 160.953125 124.042969 161.476562 124.042969 162 L 124.042969 166 C 124.042969 166.261719 124.015625 166.523438 123.964844 166.78125 C 123.914062 167.039062 123.835938 167.289062 123.738281 167.53125 C 123.636719 167.773438 123.511719 168.003906 123.367188 168.222656 C 123.21875 168.441406 123.054688 168.644531 122.867188 168.828125 C 122.683594 169.015625 122.480469 169.179688 122.261719 169.324219 C 122.042969 169.472656 121.8125 169.59375 121.566406 169.695312 C 121.324219 169.796875 121.074219 169.871094 120.816406 169.921875 C 120.558594 169.972656 120.296875 170 120.035156 170 C 119.769531 170 119.511719 170.050781 119.269531 170.152344 C 119.023438 170.253906 118.804688 170.398438 118.617188 170.585938 C 118.429688 170.773438 118.285156 170.988281 118.183594 171.234375 C 118.082031 171.480469 118.03125 171.734375 118.03125 172 C 118.03125 172.265625 118.082031 172.519531 118.183594 172.765625 C 118.285156 173.011719 118.429688 173.226562 118.617188 173.414062 C 118.804688 173.601562 119.023438 173.746094 119.269531 173.847656 C 119.511719 173.949219 119.769531 174 120.035156 174 C 120.296875 174 120.558594 174.027344 120.816406 174.078125 C 121.074219 174.128906 121.324219 174.203125 121.566406 174.304688 C 121.8125 174.40625 122.042969 174.527344 122.261719 174.675781 C 122.480469 174.820312 122.683594 174.984375 122.867188 175.171875 C 123.054688 175.355469 123.21875 175.558594 123.367188 175.777344 C 123.511719 175.996094 123.636719 176.226562 123.738281 176.46875 C 123.835938 176.710938 123.914062 176.960938 123.964844 177.21875 C 124.015625 177.476562 124.042969 177.738281 124.042969 178 L 124.042969 182 C 124.042969 182.523438 124.09375 183.046875 124.195312 183.5625 C 124.296875 184.074219 124.449219 184.574219 124.652344 185.0625 C 124.851562 185.546875 125.101562 186.007812 125.390625 186.445312 C 125.683594 186.882812 126.015625 187.285156 126.390625 187.65625 C 126.761719 188.027344 127.167969 188.359375 127.605469 188.652344 C 128.042969 188.945312 128.503906 189.191406 128.988281 189.390625 C 129.476562 189.59375 129.976562 189.742188 130.492188 189.847656 C 131.007812 189.949219 131.53125 190 132.054688 190 C 132.320312 190 132.578125 189.949219 132.824219 189.847656 C 133.070312 189.746094 133.285156 189.601562 133.472656 189.414062 C 133.660156 189.226562 133.804688 189.011719 133.90625 188.765625 C 134.007812 188.519531 134.058594 188.265625 134.058594 188 C 134.058594 187.734375 134.007812 187.480469 133.90625 187.234375 C 133.804688 186.988281 133.660156 186.773438 133.472656 186.585938 C 133.285156 186.398438 133.070312 186.253906 132.824219 186.152344 C 132.578125 186.050781 132.320312 186 132.054688 186 C 131.792969 186 131.53125 185.972656 131.273438 185.921875 C 131.015625 185.871094 130.765625 185.796875 130.523438 185.695312 C 130.28125 185.59375 130.046875 185.472656 129.828125 185.324219 C 129.609375 185.179688 129.410156 185.015625 129.222656 184.828125 C 129.035156 184.644531 128.871094 184.441406 128.722656 184.222656 C 128.578125 184.003906 128.453125 183.773438 128.355469 183.53125 C 128.253906 183.289062 128.175781 183.039062 128.125 182.78125 C 128.074219 182.523438 128.050781 182.261719 128.050781 182 L 128.050781 178 C 128.050781 176.851562 127.8125 175.753906 127.339844 174.707031 C 126.863281 173.660156 126.195312 172.757812 125.328125 172 C 126.195312 171.242188 126.863281 170.339844 127.339844 169.292969 C 127.8125 168.246094 128.050781 167.148438 128.050781 166 Z M 128.050781 162 " fill-opacity="1" fill-rule="nonzero"/><g clip-path="url(#00f48e2905)"><path fill="#d9d9d9" d="M 200.179688 90 L 108.011719 90 C 107.746094 90 107.492188 90.050781 107.246094 90.152344 C 107 90.253906 106.785156 90.398438 106.597656 90.585938 C 106.410156 90.773438 106.261719 90.988281 106.160156 91.234375 C 106.058594 91.480469 106.007812 91.734375 106.007812 92 L 106.007812 98 L 100 98 C 99.734375 98 99.476562 98.050781 99.230469 98.152344 C 98.988281 98.253906 98.769531 98.398438 98.582031 98.585938 C 98.394531 98.773438 98.25 98.988281 98.148438 99.234375 C 98.046875 99.480469 97.996094 99.734375 97.996094 100 L 97.996094 208 C 97.996094 208.265625 98.046875 208.519531 98.148438 208.765625 C 98.25 209.011719 98.394531 209.226562 98.582031 209.414062 C 98.769531 209.601562 98.984375 209.746094 99.230469 209.847656 C 99.476562 209.949219 99.734375 210 100 210 L 192.164062 210 C 192.429688 210 192.6875 209.949219 192.929688 209.847656 C 193.175781 209.746094 193.394531 209.601562 193.582031 209.414062 C 193.769531 209.226562 193.914062 209.011719 194.015625 208.765625 C 194.117188 208.519531 194.167969 208.265625 194.167969 208 L 194.167969 202 L 200.179688 202 C 200.445312 202 200.699219 201.949219 200.945312 201.847656 C 201.191406 201.746094 201.40625 201.601562 201.59375 201.414062 C 201.785156 201.226562 201.929688 201.011719 202.03125 200.765625 C 202.132812 200.519531 202.183594 200.265625 202.183594 200 L 202.183594 92 C 202.183594 91.734375 202.132812 91.480469 202.03125 91.234375 C 201.929688 90.988281 201.785156 90.773438 201.59375 90.585938 C 201.40625 90.398438 201.191406 90.253906 200.945312 90.152344 C 200.699219 90.050781 200.445312 90 200.179688 90 Z M 108.011719 116 C 108.011719 115.34375 108.078125 114.691406 108.207031 114.050781 C 108.332031 113.40625 108.523438 112.78125 108.777344 112.171875 C 109.027344 111.566406 109.335938 110.992188 109.703125 110.445312 C 110.066406 109.898438 110.480469 109.394531 110.945312 108.929688 C 111.414062 108.464844 111.917969 108.050781 112.464844 107.683594 C 113.011719 107.320312 113.589844 107.011719 114.195312 106.761719 C 114.804688 106.511719 115.429688 106.320312 116.078125 106.191406 C 116.722656 106.0625 117.375 106 118.03125 106 L 122.039062 106 C 122.304688 106 122.558594 106.050781 122.804688 106.152344 C 123.050781 106.253906 123.265625 106.398438 123.453125 106.585938 C 123.644531 106.773438 123.789062 106.988281 123.890625 107.234375 C 123.992188 107.480469 124.042969 107.734375 124.042969 108 C 124.042969 108.265625 123.992188 108.519531 123.890625 108.765625 C 123.789062 109.011719 123.644531 109.226562 123.453125 109.414062 C 123.265625 109.601562 123.050781 109.746094 122.804688 109.847656 C 122.558594 109.949219 122.304688 110 122.039062 110 L 118.03125 110 C 117.636719 110 117.246094 110.039062 116.859375 110.117188 C 116.472656 110.195312 116.097656 110.308594 115.734375 110.460938 C 115.371094 110.613281 115.023438 110.796875 114.695312 111.015625 C 114.367188 111.234375 114.066406 111.484375 113.785156 111.761719 C 113.507812 112.039062 113.257812 112.34375 113.039062 112.671875 C 112.820312 112.996094 112.632812 113.34375 112.480469 113.707031 C 112.332031 114.070312 112.214844 114.445312 112.136719 114.832031 C 112.0625 115.214844 112.019531 115.605469 112.019531 116 L 112.019531 120 C 112.019531 120.394531 112.0625 120.785156 112.136719 121.167969 C 112.214844 121.554688 112.332031 121.929688 112.480469 122.292969 C 112.632812 122.65625 112.820312 123.003906 113.039062 123.328125 C 113.257812 123.65625 113.507812 123.960938 113.785156 124.238281 C 114.066406 124.515625 114.367188 124.765625 114.695312 124.984375 C 115.023438 125.203125 115.371094 125.386719 115.734375 125.539062 C 116.097656 125.691406 116.472656 125.804688 116.859375 125.882812 C 117.246094 125.960938 117.636719 126 118.03125 126 L 122.039062 126 C 122.304688 126 122.558594 126.050781 122.804688 126.152344 C 123.050781 126.253906 123.265625 126.398438 123.453125 126.585938 C 123.644531 126.773438 123.789062 126.988281 123.890625 127.234375 C 123.992188 127.480469 124.042969 127.734375 124.042969 128 C 124.042969 128.265625 123.992188 128.519531 123.890625 128.765625 C 123.789062 129.011719 123.644531 129.226562 123.453125 129.414062 C 123.265625 129.601562 123.050781 129.746094 122.804688 129.847656 C 122.558594 129.949219 122.304688 130 122.039062 130 L 118.03125 130 C 117.375 130 116.722656 129.9375 116.078125 129.808594 C 115.429688 129.679688 114.804688 129.488281 114.195312 129.238281 C 113.589844 128.988281 113.011719 128.679688 112.464844 128.316406 C 111.917969 127.949219 111.414062 127.535156 110.945312 127.070312 C 110.480469 126.605469 110.066406 126.101562 109.703125 125.554688 C 109.335938 125.007812 109.027344 124.433594 108.777344 123.828125 C 108.523438 123.21875 108.332031 122.59375 108.207031 121.949219 C 108.078125 121.308594 108.011719 120.65625 108.011719 120 Z M 190.160156 206 L 102.003906 206 L 102.003906 138 L 190.160156 138 Z M 137.066406 120 L 135.0625 120 C 134.601562 120 134.144531 119.957031 133.695312 119.867188 C 133.242188 119.777344 132.804688 119.644531 132.378906 119.46875 C 131.953125 119.292969 131.546875 119.074219 131.164062 118.820312 C 130.78125 118.566406 130.429688 118.273438 130.101562 117.949219 C 129.777344 117.625 129.488281 117.269531 129.230469 116.890625 C 128.976562 116.507812 128.757812 116.101562 128.582031 115.679688 C 128.40625 115.253906 128.273438 114.816406 128.183594 114.367188 C 128.09375 113.914062 128.050781 113.460938 128.050781 113 C 128.050781 112.539062 128.09375 112.085938 128.183594 111.632812 C 128.273438 111.183594 128.40625 110.746094 128.582031 110.320312 C 128.757812 109.898438 128.976562 109.492188 129.230469 109.109375 C 129.488281 108.730469 129.777344 108.375 130.101562 108.050781 C 130.429688 107.726562 130.78125 107.433594 131.164062 107.179688 C 131.546875 106.925781 131.953125 106.707031 132.378906 106.53125 C 132.804688 106.355469 133.242188 106.222656 133.695312 106.132812 C 134.144531 106.042969 134.601562 106 135.0625 106 L 138.066406 106 C 138.460938 106 138.851562 106.039062 139.238281 106.117188 C 139.625 106.195312 140 106.308594 140.363281 106.460938 C 140.730469 106.613281 141.074219 106.796875 141.402344 107.015625 C 141.730469 107.234375 142.035156 107.484375 142.3125 107.761719 C 142.589844 108.039062 142.839844 108.34375 143.058594 108.671875 C 143.277344 108.996094 143.464844 109.34375 143.617188 109.707031 C 143.765625 110.070312 143.882812 110.445312 143.960938 110.832031 C 144.039062 111.214844 144.078125 111.605469 144.078125 112 C 144.078125 112.265625 144.027344 112.519531 143.925781 112.765625 C 143.824219 113.011719 143.679688 113.226562 143.492188 113.414062 C 143.304688 113.601562 143.085938 113.746094 142.839844 113.847656 C 142.59375 113.949219 142.339844 114 142.074219 114 C 141.808594 114 141.554688 113.949219 141.308594 113.847656 C 141.0625 113.746094 140.84375 113.601562 140.65625 113.414062 C 140.46875 113.226562 140.324219 113.011719 140.222656 112.765625 C 140.121094 112.519531 140.070312 112.265625 140.070312 112 C 140.070312 111.734375 140.019531 111.480469 139.917969 111.234375 C 139.816406 110.988281 139.671875 110.773438 139.484375 110.585938 C 139.296875 110.398438 139.078125 110.253906 138.832031 110.152344 C 138.589844 110.050781 138.332031 110 138.066406 110 L 135.0625 110 C 134.664062 110 134.28125 110.074219 133.910156 110.226562 C 133.542969 110.378906 133.21875 110.597656 132.9375 110.878906 C 132.65625 111.160156 132.4375 111.484375 132.285156 111.851562 C 132.132812 112.21875 132.054688 112.601562 132.054688 113 C 132.054688 113.398438 132.132812 113.78125 132.285156 114.148438 C 132.4375 114.515625 132.65625 114.839844 132.9375 115.121094 C 133.21875 115.402344 133.542969 115.621094 133.910156 115.773438 C 134.28125 115.925781 134.664062 116 135.0625 116 L 137.066406 116 C 137.527344 116 137.980469 116.042969 138.433594 116.132812 C 138.886719 116.222656 139.324219 116.355469 139.75 116.53125 C 140.175781 116.707031 140.578125 116.925781 140.960938 117.179688 C 141.34375 117.433594 141.699219 117.726562 142.023438 118.050781 C 142.347656 118.375 142.640625 118.730469 142.894531 119.109375 C 143.152344 119.492188 143.367188 119.898438 143.542969 120.320312 C 143.71875 120.746094 143.851562 121.183594 143.941406 121.632812 C 144.03125 122.085938 144.078125 122.539062 144.078125 123 C 144.078125 123.460938 144.03125 123.914062 143.941406 124.367188 C 143.851562 124.816406 143.71875 125.253906 143.542969 125.679688 C 143.367188 126.101562 143.152344 126.507812 142.894531 126.890625 C 142.640625 127.269531 142.347656 127.625 142.023438 127.949219 C 141.699219 128.273438 141.34375 128.566406 140.960938 128.820312 C 140.578125 129.074219 140.175781 129.292969 139.75 129.46875 C 139.324219 129.644531 138.886719 129.777344 138.433594 129.867188 C 137.980469 129.957031 137.527344 130 137.066406 130 L 134.058594 130 C 133.664062 130 133.273438 129.960938 132.886719 129.882812 C 132.5 129.804688 132.125 129.691406 131.761719 129.539062 C 131.398438 129.386719 131.050781 129.203125 130.722656 128.984375 C 130.398438 128.765625 130.09375 128.515625 129.816406 128.238281 C 129.535156 127.960938 129.285156 127.65625 129.066406 127.328125 C 128.847656 127.003906 128.664062 126.65625 128.511719 126.292969 C 128.359375 125.929688 128.246094 125.554688 128.167969 125.167969 C 128.089844 124.785156 128.050781 124.394531 128.050781 124 C 128.050781 123.734375 128.101562 123.480469 128.203125 123.234375 C 128.304688 122.988281 128.449219 122.773438 128.636719 122.585938 C 128.824219 122.398438 129.039062 122.253906 129.285156 122.152344 C 129.53125 122.050781 129.785156 122 130.050781 122 C 130.316406 122 130.574219 122.050781 130.820312 122.152344 C 131.066406 122.253906 131.28125 122.398438 131.46875 122.585938 C 131.65625 122.773438 131.800781 122.988281 131.902344 123.234375 C 132.003906 123.480469 132.054688 123.734375 132.054688 124 C 132.054688 124.265625 132.105469 124.519531 132.207031 124.765625 C 132.308594 125.011719 132.457031 125.226562 132.644531 125.414062 C 132.832031 125.601562 133.046875 125.746094 133.292969 125.847656 C 133.539062 125.949219 133.792969 126 134.058594 126 L 137.066406 126 C 137.464844 126 137.847656 125.925781 138.214844 125.773438 C 138.582031 125.621094 138.910156 125.402344 139.191406 125.121094 C 139.472656 124.839844 139.6875 124.515625 139.84375 124.148438 C 139.996094 123.78125 140.070312 123.398438 140.070312 123 C 140.070312 122.601562 139.996094 122.21875 139.84375 121.851562 C 139.6875 121.484375 139.472656 121.160156 139.191406 120.878906 C 138.910156 120.597656 138.582031 120.378906 138.214844 120.226562 C 137.847656 120.074219 137.464844 120 137.066406 120 Z M 157.101562 120 L 155.097656 120 C 154.636719 120 154.179688 119.957031 153.730469 119.867188 C 153.277344 119.777344 152.839844 119.644531 152.414062 119.46875 C 151.988281 119.292969 151.585938 119.074219 151.203125 118.820312 C 150.820312 118.566406 150.464844 118.273438 150.140625 117.949219 C 149.8125 117.625 149.523438 117.269531 149.265625 116.890625 C 149.011719 116.507812 148.796875 116.101562 148.617188 115.679688 C 148.441406 115.253906 148.308594 114.816406 148.21875 114.367188 C 148.128906 113.914062 148.085938 113.460938 148.085938 113 C 148.085938 112.539062 148.128906 112.085938 148.21875 111.632812 C 148.308594 111.183594 148.441406 110.746094 148.617188 110.320312 C 148.796875 109.898438 149.011719 109.492188 149.265625 109.109375 C 149.523438 108.730469 149.8125 108.375 150.140625 108.050781 C 150.464844 107.726562 150.820312 107.433594 151.203125 107.179688 C 151.585938 106.925781 151.988281 106.707031 152.414062 106.53125 C 152.839844 106.355469 153.277344 106.222656 153.730469 106.132812 C 154.179688 106.042969 154.636719 106 155.097656 106 L 158.101562 106 C 158.496094 106 158.886719 106.039062 159.273438 106.117188 C 159.660156 106.195312 160.035156 106.308594 160.402344 106.460938 C 160.765625 106.613281 161.109375 106.796875 161.4375 107.015625 C 161.765625 107.234375 162.070312 107.484375 162.347656 107.761719 C 162.628906 108.039062 162.875 108.34375 163.09375 108.671875 C 163.316406 108.996094 163.5 109.34375 163.652344 109.707031 C 163.804688 110.070312 163.917969 110.445312 163.996094 110.832031 C 164.074219 111.214844 164.113281 111.605469 164.113281 112 C 164.113281 112.265625 164.0625 112.519531 163.960938 112.765625 C 163.859375 113.011719 163.714844 113.226562 163.527344 113.414062 C 163.339844 113.601562 163.121094 113.746094 162.878906 113.847656 C 162.632812 113.949219 162.375 114 162.109375 114 C 161.84375 114 161.589844 113.949219 161.34375 113.847656 C 161.097656 113.746094 160.882812 113.601562 160.695312 113.414062 C 160.503906 113.226562 160.359375 113.011719 160.257812 112.765625 C 160.15625 112.519531 160.105469 112.265625 160.105469 112 C 160.105469 111.734375 160.054688 111.480469 159.953125 111.234375 C 159.851562 110.988281 159.707031 110.773438 159.519531 110.585938 C 159.332031 110.398438 159.117188 110.253906 158.871094 110.152344 C 158.625 110.050781 158.367188 110 158.101562 110 L 155.097656 110 C 154.699219 110 154.316406 110.074219 153.949219 110.226562 C 153.578125 110.378906 153.253906 110.597656 152.972656 110.878906 C 152.691406 111.160156 152.472656 111.484375 152.320312 111.851562 C 152.167969 112.21875 152.09375 112.601562 152.09375 113 C 152.09375 113.398438 152.167969 113.78125 152.320312 114.148438 C 152.472656 114.515625 152.691406 114.839844 152.972656 115.121094 C 153.253906 115.402344 153.578125 115.621094 153.949219 115.773438 C 154.316406 115.925781 154.699219 116 155.097656 116 L 157.101562 116 C 157.5625 116 158.019531 116.042969 158.46875 116.132812 C 158.921875 116.222656 159.359375 116.355469 159.785156 116.53125 C 160.210938 116.707031 160.613281 116.925781 160.996094 117.179688 C 161.378906 117.433594 161.734375 117.726562 162.058594 118.050781 C 162.386719 118.375 162.675781 118.730469 162.933594 119.109375 C 163.1875 119.492188 163.402344 119.898438 163.578125 120.320312 C 163.757812 120.746094 163.890625 121.183594 163.980469 121.632812 C 164.070312 122.085938 164.113281 122.539062 164.113281 123 C 164.113281 123.460938 164.070312 123.914062 163.980469 124.367188 C 163.890625 124.816406 163.757812 125.253906 163.578125 125.679688 C 163.402344 126.101562 163.1875 126.507812 162.933594 126.890625 C 162.675781 127.269531 162.386719 127.625 162.058594 127.949219 C 161.734375 128.273438 161.378906 128.566406 160.996094 128.820312 C 160.613281 129.074219 160.210938 129.292969 159.785156 129.46875 C 159.359375 129.644531 158.921875 129.777344 158.46875 129.867188 C 158.019531 129.957031 157.5625 130 157.101562 130 L 154.097656 130 C 153.703125 130 153.3125 129.960938 152.925781 129.882812 C 152.539062 129.804688 152.164062 129.691406 151.796875 129.539062 C 151.433594 129.386719 151.089844 129.203125 150.761719 128.984375 C 150.433594 128.765625 150.128906 128.515625 149.851562 128.238281 C 149.570312 127.960938 149.324219 127.65625 149.101562 127.328125 C 148.882812 127.003906 148.699219 126.65625 148.546875 126.292969 C 148.394531 125.929688 148.28125 125.554688 148.203125 125.167969 C 148.125 124.785156 148.085938 124.394531 148.085938 124 C 148.085938 123.734375 148.136719 123.480469 148.238281 123.234375 C 148.339844 122.988281 148.484375 122.773438 148.671875 122.585938 C 148.859375 122.398438 149.078125 122.253906 149.320312 122.152344 C 149.566406 122.050781 149.824219 122 150.089844 122 C 150.355469 122 150.609375 122.050781 150.855469 122.152344 C 151.101562 122.253906 151.316406 122.398438 151.503906 122.585938 C 151.691406 122.773438 151.839844 122.988281 151.941406 123.234375 C 152.042969 123.480469 152.09375 123.734375 152.09375 124 C 152.09375 124.265625 152.144531 124.519531 152.246094 124.765625 C 152.347656 125.011719 152.492188 125.226562 152.679688 125.414062 C 152.867188 125.601562 153.082031 125.746094 153.328125 125.847656 C 153.574219 125.949219 153.832031 126 154.097656 126 L 157.101562 126 C 157.5 126 157.882812 125.925781 158.25 125.773438 C 158.621094 125.621094 158.945312 125.402344 159.226562 125.121094 C 159.507812 124.839844 159.726562 124.515625 159.878906 124.148438 C 160.03125 123.78125 160.105469 123.398438 160.105469 123 C 160.105469 122.601562 160.03125 122.21875 159.878906 121.851562 C 159.726562 121.484375 159.507812 121.160156 159.226562 120.878906 C 158.945312 120.597656 158.621094 120.378906 158.25 120.226562 C 157.882812 120.074219 157.5 120 157.101562 120 Z M 174.132812 116 L 174.132812 104.820312 L 187.335938 118 L 176.136719 118 C 175.871094 118 175.613281 117.949219 175.367188 117.847656 C 175.125 117.746094 174.90625 117.601562 174.71875 117.414062 C 174.53125 117.226562 174.386719 117.011719 174.285156 116.765625 C 174.183594 116.519531 174.132812 116.265625 174.132812 116 Z M 198.175781 198 L 194.167969 198 L 194.167969 120 C 194.164062 119.449219 193.96875 118.976562 193.585938 118.578125 L 173.550781 98.578125 C 173.152344 98.199219 172.679688 98.003906 172.128906 98 L 110.015625 98 L 110.015625 94 L 198.175781 94 Z M 198.175781 198 " fill-opacity="1" fill-rule="nonzero"/></g></svg>