<svg xmlns="http://www.w3.org/2000/svg" xmlns:xlink="http://www.w3.org/1999/xlink" width="400" zoomAndPan="magnify" viewBox="0 0 300 299.999988" height="400" preserveAspectRatio="xMidYMid meet" version="1.0"><defs><clipPath id="9a6e4d63aa"><path d="M 108.601562 90 L 191.101562 90 L 191.101562 210 L 108.601562 210 Z M 108.601562 90 " clip-rule="nonzero"/></clipPath></defs><g clip-path="url(#9a6e4d63aa)"><path fill="#d9d9d9" d="M 131.316406 89.992188 C 118.773438 89.992188 108.605469 100.199219 108.605469 112.785156 C 108.605469 120.46875 112.390625 127.261719 118.195312 131.390625 C 112.390625 135.519531 108.605469 142.3125 108.605469 149.996094 C 108.605469 157.679688 112.390625 164.472656 118.195312 168.601562 C 112.390625 172.730469 108.605469 179.523438 108.605469 187.207031 C 108.605469 199.792969 118.773438 210 131.316406 210 C 143.859375 210 154.027344 199.792969 154.027344 187.207031 L 154.027344 167.648438 C 157.941406 170.859375 162.945312 172.789062 168.394531 172.789062 C 180.9375 172.789062 191.105469 162.582031 191.105469 149.996094 C 191.105469 142.3125 187.320312 135.519531 181.515625 131.390625 C 187.320312 127.261719 191.105469 120.46875 191.105469 112.785156 C 191.105469 100.199219 180.9375 89.992188 168.394531 89.992188 Z M 145.683594 164.414062 L 131.316406 164.414062 C 123.378906 164.414062 116.949219 157.960938 116.949219 149.996094 C 116.949219 142.03125 123.378906 135.578125 131.316406 135.578125 L 145.683594 135.578125 Z M 131.316406 127.203125 L 145.683594 127.203125 L 145.683594 98.367188 L 131.316406 98.367188 C 123.378906 98.367188 116.949219 104.820312 116.949219 112.785156 C 116.949219 120.75 123.378906 127.203125 131.316406 127.203125 Z M 182.761719 112.785156 C 182.761719 120.742188 176.339844 127.195312 168.410156 127.203125 L 154.027344 127.203125 L 154.027344 98.367188 L 168.394531 98.367188 C 176.332031 98.367188 182.761719 104.820312 182.761719 112.785156 Z M 154.027344 149.980469 C 154.035156 142.027344 160.457031 135.585938 168.378906 135.578125 L 168.410156 135.578125 C 176.335938 135.585938 182.761719 142.039062 182.761719 149.996094 C 182.761719 157.960938 176.332031 164.414062 168.394531 164.414062 C 160.464844 164.414062 154.035156 157.96875 154.027344 150.015625 Z M 131.316406 172.789062 C 123.378906 172.789062 116.949219 179.242188 116.949219 187.207031 C 116.949219 195.171875 123.378906 201.625 131.316406 201.625 C 139.25 201.625 145.683594 195.171875 145.683594 187.207031 L 145.683594 172.789062 Z M 131.316406 172.789062 " fill-opacity="1" fill-rule="evenodd"/></g></svg>