<svg xmlns="http://www.w3.org/2000/svg" xmlns:xlink="http://www.w3.org/1999/xlink" width="400" zoomAndPan="magnify" viewBox="0 0 300 299.999988" height="400" preserveAspectRatio="xMidYMid meet" version="1.0"><defs><clipPath id="de55c6dfa8"><path d="M 73 96.179688 L 235 96.179688 L 235 138 L 73 138 Z M 73 96.179688 " clip-rule="nonzero"/></clipPath><clipPath id="db3bf43c0c"><path d="M 57.003906 140 L 243 140 L 243 203 L 57.003906 203 Z M 57.003906 140 " clip-rule="nonzero"/></clipPath></defs><g clip-path="url(#de55c6dfa8)"><path fill="#d9d9d9" d="M 75.484375 120.058594 C 77.039062 121.128906 79.167969 120.726562 80.230469 119.164062 C 82.957031 115.167969 85.980469 111.765625 89.226562 109.058594 C 92.265625 106.515625 97.078125 103.480469 102.738281 103.433594 C 105.164062 103.378906 107.660156 103.925781 110.160156 104.957031 C 111.699219 105.59375 113.136719 106.78125 114.660156 108.035156 C 116.554688 109.59375 118.699219 111.363281 121.441406 112.355469 C 127.808594 114.65625 135.523438 114.386719 142.332031 114.152344 C 144.113281 114.089844 145.792969 114.03125 147.367188 114.019531 C 155.503906 113.964844 162.128906 113.855469 170.171875 113.691406 C 173.746094 113.617188 177.449219 112.558594 180.878906 110.628906 C 182.304688 109.824219 183.492188 108.886719 184.640625 107.980469 C 185.726562 107.117188 186.757812 106.300781 187.832031 105.757812 C 191.472656 103.90625 195.277344 103.140625 198.828125 103.539062 C 203.273438 104.035156 207.710938 106.316406 212.003906 110.3125 C 214.828125 112.933594 217.410156 116.066406 219.902344 119.878906 C 220.710938 121.117188 221.519531 122.445312 222.300781 123.820312 C 222.683594 124.492188 223.054688 125.164062 223.417969 125.84375 C 224.234375 127.371094 225.03125 128.96875 225.78125 130.582031 C 226.539062 132.210938 227.269531 133.902344 227.953125 135.609375 C 228.488281 136.949219 229.769531 137.761719 231.125 137.761719 C 231.546875 137.761719 231.980469 137.683594 232.394531 137.515625 C 234.144531 136.808594 234.996094 134.8125 234.292969 133.058594 C 233.5625 131.230469 232.78125 129.425781 231.972656 127.6875 C 231.167969 125.953125 230.3125 124.242188 229.433594 122.601562 C 229.046875 121.871094 228.644531 121.148438 228.234375 120.425781 C 227.382812 118.925781 226.5 117.480469 225.617188 116.121094 C 222.816406 111.835938 219.882812 108.292969 216.648438 105.285156 C 211.257812 100.273438 205.515625 97.394531 199.585938 96.726562 C 194.710938 96.179688 189.578125 97.1875 184.746094 99.640625 C 183.0625 100.496094 181.710938 101.566406 180.40625 102.597656 C 179.425781 103.378906 178.496094 104.113281 177.535156 104.652344 C 175.082031 106.03125 172.488281 106.789062 170.035156 106.839844 C 162.015625 107.003906 155.421875 107.113281 147.324219 107.167969 C 145.652344 107.179688 143.925781 107.238281 142.09375 107.300781 C 135.902344 107.519531 128.886719 107.761719 123.757812 105.910156 C 122.125 105.316406 120.605469 104.066406 118.996094 102.738281 C 117.238281 101.289062 115.242188 99.648438 112.761719 98.621094 C 109.414062 97.238281 106.019531 96.566406 102.683594 96.578125 C 96.605469 96.628906 90.441406 99.125 84.855469 103.789062 C 81.125 106.90625 77.671875 110.773438 74.589844 115.296875 C 73.527344 116.855469 73.925781 118.988281 75.484375 120.058594 Z M 75.484375 120.058594 " fill-opacity="1" fill-rule="nonzero"/></g><path fill="#d9d9d9" d="M 231.535156 146.941406 C 231.976562 148.449219 232.386719 149.972656 232.761719 151.476562 C 233.152344 153.035156 234.542969 154.070312 236.074219 154.070312 C 236.347656 154.070312 236.628906 154.039062 236.90625 153.96875 C 238.734375 153.507812 239.847656 151.648438 239.390625 149.8125 C 238.992188 148.222656 238.554688 146.609375 238.09375 145.015625 C 237.5625 143.199219 235.664062 142.160156 233.855469 142.691406 C 232.042969 143.222656 231.003906 145.128906 231.535156 146.941406 Z M 231.535156 146.941406 " fill-opacity="1" fill-rule="nonzero"/><g clip-path="url(#db3bf43c0c)"><path fill="#d9d9d9" d="M 242.203125 165.710938 C 242.113281 164.570312 241.996094 163.949219 241.882812 163.351562 C 241.816406 163.003906 241.742188 162.621094 241.664062 162.03125 C 241.410156 160.15625 239.6875 158.847656 237.820312 159.09375 C 235.953125 159.347656 234.640625 161.074219 234.894531 162.949219 C 234.996094 163.710938 235.09375 164.222656 235.171875 164.636719 C 235.269531 165.148438 235.335938 165.492188 235.394531 166.257812 C 235.75 170.707031 235.960938 176.480469 234.421875 181.664062 C 232.378906 188.566406 225.1875 194.347656 216.933594 195.726562 C 212.484375 196.46875 204.125 196.449219 198.117188 187.984375 C 190.828125 177.710938 178.726562 171.578125 165.742188 171.578125 L 134.070312 171.578125 C 121.085938 171.578125 108.980469 177.710938 101.695312 187.984375 C 95.6875 196.449219 87.324219 196.46875 82.875 195.726562 C 74.625 194.347656 67.433594 188.566406 65.386719 181.660156 C 65.332031 181.46875 65.277344 181.277344 65.226562 181.085938 C 64.671875 179 64.296875 176.738281 64.113281 174.363281 C 64.003906 172.941406 63.960938 171.449219 63.984375 169.921875 C 64.015625 168.035156 64.144531 166.039062 64.378906 163.988281 C 64.53125 162.628906 64.734375 161.210938 64.976562 159.773438 C 65.183594 158.542969 65.429688 157.269531 65.703125 155.976562 C 66.089844 154.152344 66.554688 152.222656 67.082031 150.238281 C 67.644531 148.121094 67.992188 146.910156 68.5625 145.058594 C 69.121094 143.25 68.113281 141.328125 66.308594 140.769531 C 64.507812 140.210938 62.59375 141.222656 62.039062 143.03125 C 61.441406 144.960938 61.0625 146.28125 60.480469 148.46875 C 59.921875 150.566406 59.433594 152.613281 59.019531 154.550781 C 58.726562 155.933594 58.464844 157.304688 58.242188 158.625 C 57.976562 160.1875 57.757812 161.730469 57.589844 163.214844 C 57.335938 165.488281 57.1875 167.707031 57.15625 169.816406 C 57.128906 171.550781 57.179688 173.257812 57.304688 174.890625 C 57.519531 177.683594 57.964844 180.359375 58.625 182.851562 C 58.695312 183.109375 58.765625 183.367188 58.839844 183.617188 C 61.601562 192.9375 71.023438 200.695312 81.757812 202.488281 C 92.003906 204.195312 101.300781 200.359375 107.261719 191.957031 C 113.269531 183.488281 123.289062 178.433594 134.070312 178.433594 L 165.746094 178.433594 C 176.523438 178.433594 186.542969 183.488281 192.554688 191.957031 C 197.582031 199.046875 204.984375 202.886719 213.332031 202.886719 C 214.878906 202.886719 216.457031 202.753906 218.058594 202.488281 C 228.789062 200.695312 238.210938 192.9375 240.972656 183.617188 C 242.828125 177.347656 242.605469 170.753906 242.203125 165.710938 Z M 242.203125 165.710938 " fill-opacity="1" fill-rule="nonzero"/></g><path fill="#d9d9d9" d="M 68.210938 135.972656 C 68.640625 136.152344 69.085938 136.238281 69.523438 136.238281 C 70.859375 136.238281 72.128906 135.441406 72.675781 134.125 C 73.445312 132.273438 74.253906 130.476562 75.082031 128.785156 C 75.914062 127.085938 75.214844 125.035156 73.523438 124.199219 C 71.828125 123.367188 69.78125 124.066406 68.949219 125.765625 C 68.058594 127.582031 67.191406 129.507812 66.371094 131.496094 C 65.644531 133.242188 66.46875 135.246094 68.210938 135.972656 Z M 68.210938 135.972656 " fill-opacity="1" fill-rule="nonzero"/><path fill="#d9d9d9" d="M 170.007812 143.359375 C 170.007812 148.554688 174.222656 152.78125 179.402344 152.78125 C 184.582031 152.78125 188.796875 148.554688 188.796875 143.359375 C 188.796875 138.160156 184.582031 133.933594 179.402344 133.933594 C 174.222656 133.933594 170.007812 138.160156 170.007812 143.359375 Z M 181.964844 143.359375 C 181.964844 144.777344 180.816406 145.929688 179.402344 145.929688 C 177.988281 145.929688 176.839844 144.777344 176.839844 143.359375 C 176.839844 141.941406 177.988281 140.785156 179.402344 140.785156 C 180.816406 140.785156 181.964844 141.941406 181.964844 143.359375 Z M 181.964844 143.359375 " fill-opacity="1" fill-rule="nonzero"/><path fill="#d9d9d9" d="M 219.832031 143.359375 C 219.832031 138.160156 215.617188 133.933594 210.4375 133.933594 C 205.257812 133.933594 201.042969 138.160156 201.042969 143.359375 C 201.042969 148.554688 205.257812 152.78125 210.4375 152.78125 C 215.617188 152.78125 219.832031 148.554688 219.832031 143.359375 Z M 207.875 143.359375 C 207.875 141.941406 209.023438 140.785156 210.4375 140.785156 C 211.851562 140.785156 213 141.941406 213 143.359375 C 213 144.777344 211.851562 145.929688 210.4375 145.929688 C 209.023438 145.929688 207.875 144.777344 207.875 143.359375 Z M 207.875 143.359375 " fill-opacity="1" fill-rule="nonzero"/><path fill="#d9d9d9" d="M 194.921875 138.621094 C 200.101562 138.621094 204.3125 134.390625 204.3125 129.195312 C 204.3125 123.996094 200.101562 119.769531 194.921875 119.769531 C 189.742188 119.769531 185.527344 123.996094 185.527344 129.195312 C 185.527344 134.390625 189.742188 138.621094 194.921875 138.621094 Z M 194.921875 126.625 C 196.332031 126.625 197.484375 127.777344 197.484375 129.195312 C 197.484375 130.613281 196.332031 131.765625 194.921875 131.765625 C 193.507812 131.765625 192.359375 130.613281 192.359375 129.195312 C 192.359375 127.777344 193.507812 126.625 194.921875 126.625 Z M 194.921875 126.625 " fill-opacity="1" fill-rule="nonzero"/><path fill="#d9d9d9" d="M 194.921875 166.945312 C 200.101562 166.945312 204.3125 162.71875 204.3125 157.519531 C 204.3125 152.324219 200.101562 148.09375 194.921875 148.09375 C 189.742188 148.09375 185.527344 152.324219 185.527344 157.519531 C 185.527344 162.71875 189.742188 166.945312 194.921875 166.945312 Z M 194.921875 154.949219 C 196.332031 154.949219 197.484375 156.101562 197.484375 157.519531 C 197.484375 158.9375 196.332031 160.089844 194.921875 160.089844 C 193.507812 160.089844 192.359375 158.9375 192.359375 157.519531 C 192.359375 156.101562 193.507812 154.949219 194.921875 154.949219 Z M 194.921875 154.949219 " fill-opacity="1" fill-rule="nonzero"/><path fill="#d9d9d9" d="M 163.523438 128.386719 C 163.523438 126 161.59375 124.0625 159.210938 124.0625 L 140.414062 124.0625 C 138.035156 124.0625 136.101562 126 136.101562 128.386719 C 136.101562 130.777344 138.035156 132.714844 140.414062 132.714844 L 159.210938 132.714844 C 161.59375 132.714844 163.523438 130.777344 163.523438 128.386719 Z M 163.523438 128.386719 " fill-opacity="1" fill-rule="nonzero"/><path fill="#d9d9d9" d="M 159.210938 152.277344 L 140.414062 152.277344 C 138.03125 152.277344 136.101562 154.214844 136.101562 156.605469 C 136.101562 158.992188 138.03125 160.929688 140.414062 160.929688 L 159.210938 160.929688 C 161.59375 160.929688 163.523438 158.992188 163.523438 156.605469 C 163.523438 154.214844 161.59375 152.277344 159.210938 152.277344 Z M 159.210938 152.277344 " fill-opacity="1" fill-rule="nonzero"/><path fill="#d9d9d9" d="M 104.640625 123.59375 C 99.039062 123.59375 94.460938 128.09375 94.3125 133.679688 C 88.746094 133.828125 84.261719 138.421875 84.261719 144.042969 C 84.261719 149.664062 88.746094 154.257812 94.3125 154.40625 C 94.460938 159.992188 99.039062 164.492188 104.640625 164.492188 C 110.246094 164.492188 114.824219 159.992188 114.96875 154.40625 C 120.539062 154.257812 125.023438 149.664062 125.023438 144.042969 C 125.023438 138.421875 120.539062 133.828125 114.96875 133.679688 C 114.820312 128.09375 110.246094 123.59375 104.640625 123.59375 Z M 118.191406 144.042969 C 118.191406 145.980469 116.621094 147.554688 114.691406 147.554688 L 111.558594 147.554688 C 109.671875 147.554688 108.144531 149.089844 108.144531 150.984375 L 108.144531 154.125 C 108.144531 156.0625 106.570312 157.640625 104.640625 157.640625 C 102.710938 157.640625 101.140625 156.0625 101.140625 154.125 L 101.140625 150.984375 C 101.140625 149.089844 99.613281 147.554688 97.726562 147.554688 L 94.59375 147.554688 C 92.660156 147.554688 91.089844 145.980469 91.089844 144.042969 C 91.089844 142.105469 92.660156 140.53125 94.59375 140.53125 L 97.726562 140.53125 C 99.613281 140.53125 101.140625 138.996094 101.140625 137.105469 L 101.140625 133.960938 C 101.140625 132.023438 102.710938 130.449219 104.640625 130.449219 C 106.570312 130.449219 108.144531 132.023438 108.144531 133.960938 L 108.144531 137.105469 C 108.144531 138.996094 109.671875 140.53125 111.558594 140.53125 L 114.691406 140.53125 C 116.621094 140.53125 118.191406 142.105469 118.191406 144.042969 Z M 118.191406 144.042969 " fill-opacity="1" fill-rule="nonzero"/></svg>