<svg xmlns="http://www.w3.org/2000/svg" xmlns:xlink="http://www.w3.org/1999/xlink" width="500" zoomAndPan="magnify" viewBox="0 0 375 374.999991" height="500" preserveAspectRatio="xMidYMid meet" version="1.0"><defs><clipPath id="eff0b2b714"><path d="M 112.5 112.5 L 262.5 112.5 L 262.5 262.5 L 112.5 262.5 Z M 112.5 112.5 " clip-rule="nonzero"/></clipPath></defs><g clip-path="url(#eff0b2b714)"><path fill="#d9d9d9" d="M 255.242188 122.175781 L 233.46875 122.175781 L 233.46875 112.5 L 142.949219 112.5 L 112.5 142.949219 L 112.5 262.5 L 233.46875 262.5 L 233.46875 170.566406 L 255.242188 170.566406 C 259.242188 170.566406 262.5 167.308594 262.5 163.304688 L 262.5 129.433594 C 262.5 125.433594 259.242188 122.175781 255.242188 122.175781 Z M 141.53125 120.757812 L 141.53125 141.53125 L 120.757812 141.53125 Z M 228.628906 257.660156 L 117.339844 257.660156 L 117.339844 146.371094 L 146.371094 146.371094 L 146.371094 117.339844 L 228.628906 117.339844 L 228.628906 122.175781 L 168.144531 122.175781 C 164.144531 122.175781 160.886719 125.433594 160.886719 129.433594 L 160.886719 163.304688 C 160.886719 167.308594 164.144531 170.566406 168.144531 170.566406 L 228.628906 170.566406 Z M 257.660156 163.304688 C 257.660156 164.640625 256.574219 165.726562 255.242188 165.726562 L 168.144531 165.726562 C 166.8125 165.726562 165.726562 164.640625 165.726562 163.304688 L 165.726562 129.433594 C 165.726562 128.101562 166.8125 127.015625 168.144531 127.015625 L 255.242188 127.015625 C 256.574219 127.015625 257.660156 128.101562 257.660156 129.433594 Z M 257.660156 163.304688 " fill-opacity="1" fill-rule="nonzero"/></g><path fill="#d9d9d9" d="M 182.660156 136.695312 C 186.664062 136.695312 189.917969 139.949219 189.917969 143.953125 L 194.757812 143.953125 C 194.757812 137.28125 189.332031 131.855469 182.660156 131.855469 C 175.992188 131.855469 170.566406 137.28125 170.566406 143.953125 L 170.566406 148.789062 C 170.566406 155.460938 175.992188 160.886719 182.660156 160.886719 C 185.394531 160.886719 187.890625 159.941406 189.917969 158.40625 L 189.917969 160.886719 L 194.757812 160.886719 L 194.757812 148.789062 L 185.082031 148.789062 L 185.082031 153.628906 L 188.03125 153.628906 C 186.703125 155.101562 184.796875 156.046875 182.660156 156.046875 C 178.660156 156.046875 175.402344 152.792969 175.402344 148.789062 L 175.402344 143.953125 C 175.402344 139.949219 178.660156 136.695312 182.660156 136.695312 Z M 182.660156 136.695312 " fill-opacity="1" fill-rule="nonzero"/><path fill="#d9d9d9" d="M 228.628906 146.371094 L 228.628906 160.886719 L 233.46875 160.886719 L 233.46875 148.789062 L 247.984375 148.789062 L 247.984375 143.953125 L 233.46875 143.953125 L 233.46875 136.695312 L 252.824219 136.695312 L 252.824219 131.855469 L 228.628906 131.855469 Z M 228.628906 146.371094 " fill-opacity="1" fill-rule="nonzero"/><path fill="#d9d9d9" d="M 122.175781 151.210938 L 127.015625 151.210938 L 127.015625 156.046875 L 122.175781 156.046875 Z M 122.175781 151.210938 " fill-opacity="1" fill-rule="nonzero"/><path fill="#d9d9d9" d="M 131.855469 151.210938 L 136.695312 151.210938 L 136.695312 156.046875 L 131.855469 156.046875 Z M 131.855469 151.210938 " fill-opacity="1" fill-rule="nonzero"/><path fill="#d9d9d9" d="M 122.175781 160.886719 L 127.015625 160.886719 L 127.015625 165.726562 L 122.175781 165.726562 Z M 122.175781 160.886719 " fill-opacity="1" fill-rule="nonzero"/><path fill="#d9d9d9" d="M 199.597656 136.695312 L 209.273438 136.695312 L 209.273438 156.046875 L 199.597656 156.046875 L 199.597656 160.886719 L 223.789062 160.886719 L 223.789062 156.046875 L 214.113281 156.046875 L 214.113281 136.695312 L 223.789062 136.695312 L 223.789062 131.855469 L 199.597656 131.855469 Z M 199.597656 136.695312 " fill-opacity="1" fill-rule="nonzero"/><path fill="#d9d9d9" d="M 134.273438 214.113281 C 134.273438 235.457031 151.640625 252.824219 172.984375 252.824219 C 194.328125 252.824219 211.695312 235.457031 211.695312 214.113281 C 211.695312 192.769531 194.328125 175.402344 172.984375 175.402344 C 151.640625 175.402344 134.273438 192.769531 134.273438 214.113281 Z M 172.984375 180.242188 C 191.660156 180.242188 206.855469 195.433594 206.855469 214.113281 C 206.855469 232.789062 191.660156 247.984375 172.984375 247.984375 C 154.304688 247.984375 139.113281 232.789062 139.113281 214.113281 C 139.113281 195.433594 154.304688 180.242188 172.984375 180.242188 Z M 172.984375 180.242188 " fill-opacity="1" fill-rule="nonzero"/><path fill="#d9d9d9" d="M 172.984375 243.144531 C 188.992188 243.144531 202.015625 230.121094 202.015625 214.113281 L 197.175781 214.113281 C 197.175781 227.453125 186.324219 238.304688 172.984375 238.304688 C 159.644531 238.304688 148.789062 227.453125 148.789062 214.113281 L 143.953125 214.113281 C 143.953125 230.121094 156.976562 243.144531 172.984375 243.144531 Z M 172.984375 243.144531 " fill-opacity="1" fill-rule="nonzero"/><path fill="#d9d9d9" d="M 158.46875 209.273438 C 162.46875 209.273438 165.726562 206.019531 165.726562 202.015625 C 165.726562 198.015625 162.46875 194.757812 158.46875 194.757812 C 154.464844 194.757812 151.210938 198.015625 151.210938 202.015625 C 151.210938 206.019531 154.464844 209.273438 158.46875 209.273438 Z M 158.46875 199.597656 C 159.800781 199.597656 160.886719 200.679688 160.886719 202.015625 C 160.886719 203.351562 159.800781 204.433594 158.46875 204.433594 C 157.132812 204.433594 156.046875 203.351562 156.046875 202.015625 C 156.046875 200.679688 157.132812 199.597656 158.46875 199.597656 Z M 158.46875 199.597656 " fill-opacity="1" fill-rule="nonzero"/><path fill="#d9d9d9" d="M 187.5 209.273438 C 191.5 209.273438 194.757812 206.019531 194.757812 202.015625 C 194.757812 198.015625 191.5 194.757812 187.5 194.757812 C 183.5 194.757812 180.242188 198.015625 180.242188 202.015625 C 180.242188 206.019531 183.5 209.273438 187.5 209.273438 Z M 187.5 199.597656 C 188.832031 199.597656 189.917969 200.679688 189.917969 202.015625 C 189.917969 203.351562 188.832031 204.433594 187.5 204.433594 C 186.167969 204.433594 185.082031 203.351562 185.082031 202.015625 C 185.082031 200.679688 186.167969 199.597656 187.5 199.597656 Z M 187.5 199.597656 " fill-opacity="1" fill-rule="nonzero"/></svg>