<svg xmlns="http://www.w3.org/2000/svg" xmlns:xlink="http://www.w3.org/1999/xlink" width="400" zoomAndPan="magnify" viewBox="0 0 300 299.999988" height="400" preserveAspectRatio="xMidYMid meet" version="1.0"><path fill="#d9d9d9" d="M 185.183594 151.023438 C 185.183594 151.789062 185.109375 152.546875 184.957031 153.300781 C 184.808594 154.050781 184.585938 154.78125 184.292969 155.492188 C 184 156.199219 183.640625 156.871094 183.214844 157.511719 C 182.789062 158.148438 182.304688 158.738281 181.761719 159.28125 C 181.21875 159.824219 180.628906 160.304688 179.992188 160.734375 C 179.355469 161.160156 178.679688 161.519531 177.972656 161.8125 C 177.265625 162.105469 176.535156 162.328125 175.78125 162.476562 C 175.03125 162.625 174.269531 162.699219 173.503906 162.699219 C 172.738281 162.699219 171.976562 162.625 171.226562 162.476562 C 170.472656 162.328125 169.742188 162.105469 169.035156 161.8125 C 168.324219 161.519531 167.652344 161.160156 167.015625 160.734375 C 166.378906 160.304688 165.789062 159.824219 165.246094 159.28125 C 164.703125 158.738281 164.21875 158.148438 163.792969 157.511719 C 163.367188 156.871094 163.007812 156.199219 162.714844 155.492188 C 162.421875 154.78125 162.199219 154.050781 162.050781 153.300781 C 161.898438 152.546875 161.824219 151.789062 161.824219 151.023438 C 161.824219 150.253906 161.898438 149.496094 162.050781 148.742188 C 162.199219 147.992188 162.421875 147.261719 162.714844 146.550781 C 163.007812 145.84375 163.367188 145.171875 163.792969 144.535156 C 164.21875 143.894531 164.703125 143.304688 165.246094 142.765625 C 165.789062 142.222656 166.378906 141.738281 167.015625 141.3125 C 167.652344 140.886719 168.324219 140.527344 169.035156 140.230469 C 169.742188 139.9375 170.472656 139.71875 171.226562 139.566406 C 171.976562 139.417969 172.738281 139.34375 173.503906 139.34375 C 174.269531 139.34375 175.03125 139.417969 175.78125 139.566406 C 176.535156 139.71875 177.265625 139.9375 177.972656 140.230469 C 178.679688 140.527344 179.355469 140.886719 179.992188 141.3125 C 180.628906 141.738281 181.21875 142.222656 181.761719 142.765625 C 182.304688 143.304688 182.789062 143.894531 183.214844 144.535156 C 183.640625 145.171875 184 145.84375 184.292969 146.550781 C 184.585938 147.261719 184.808594 147.992188 184.957031 148.742188 C 185.109375 149.496094 185.183594 150.253906 185.183594 151.023438 Z M 185.183594 151.023438 " fill-opacity="1" fill-rule="nonzero"/><path fill="#d9d9d9" d="M 161.824219 127.664062 C 161.824219 128.429688 161.75 129.191406 161.601562 129.941406 C 161.449219 130.695312 161.230469 131.425781 160.9375 132.132812 C 160.640625 132.84375 160.28125 133.515625 159.855469 134.152344 C 159.429688 134.789062 158.945312 135.378906 158.402344 135.921875 C 157.863281 136.464844 157.273438 136.949219 156.632812 137.375 C 155.996094 137.800781 155.324219 138.160156 154.617188 138.453125 C 153.90625 138.746094 153.175781 138.96875 152.425781 139.117188 C 151.671875 139.269531 150.914062 139.34375 150.144531 139.34375 C 149.378906 139.34375 148.621094 139.269531 147.867188 139.117188 C 147.117188 138.96875 146.386719 138.746094 145.675781 138.453125 C 144.96875 138.160156 144.296875 137.800781 143.65625 137.375 C 143.019531 136.949219 142.429688 136.464844 141.886719 135.921875 C 141.34375 135.378906 140.863281 134.789062 140.433594 134.152344 C 140.007812 133.515625 139.648438 132.84375 139.355469 132.132812 C 139.0625 131.425781 138.839844 130.695312 138.691406 129.941406 C 138.542969 129.191406 138.46875 128.429688 138.46875 127.664062 C 138.46875 126.898438 138.542969 126.136719 138.691406 125.386719 C 138.839844 124.632812 139.0625 123.902344 139.355469 123.195312 C 139.648438 122.488281 140.007812 121.8125 140.433594 121.175781 C 140.863281 120.539062 141.34375 119.949219 141.886719 119.40625 C 142.429688 118.863281 143.019531 118.378906 143.65625 117.953125 C 144.296875 117.527344 144.96875 117.167969 145.675781 116.875 C 146.386719 116.582031 147.117188 116.359375 147.867188 116.210938 C 148.621094 116.058594 149.378906 115.984375 150.144531 115.984375 C 150.914062 115.984375 151.671875 116.058594 152.425781 116.210938 C 153.175781 116.359375 153.90625 116.582031 154.617188 116.875 C 155.324219 117.167969 155.996094 117.527344 156.632812 117.953125 C 157.273438 118.378906 157.863281 118.863281 158.402344 119.40625 C 158.945312 119.949219 159.429688 120.539062 159.855469 121.175781 C 160.28125 121.8125 160.640625 122.488281 160.9375 123.195312 C 161.230469 123.902344 161.449219 124.632812 161.601562 125.386719 C 161.75 126.136719 161.824219 126.898438 161.824219 127.664062 Z M 161.824219 127.664062 " fill-opacity="1" fill-rule="nonzero"/><path fill="#d9d9d9" d="M 161.824219 174.378906 C 161.824219 175.144531 161.75 175.90625 161.601562 176.65625 C 161.449219 177.410156 161.230469 178.140625 160.9375 178.847656 C 160.640625 179.558594 160.28125 180.230469 159.855469 180.867188 C 159.429688 181.503906 158.945312 182.09375 158.402344 182.636719 C 157.863281 183.179688 157.273438 183.664062 156.632812 184.089844 C 155.996094 184.515625 155.324219 184.875 154.617188 185.167969 C 153.90625 185.460938 153.175781 185.683594 152.425781 185.832031 C 151.671875 185.984375 150.914062 186.058594 150.144531 186.058594 C 149.378906 186.058594 148.621094 185.984375 147.867188 185.832031 C 147.117188 185.683594 146.386719 185.460938 145.675781 185.167969 C 144.96875 184.875 144.296875 184.515625 143.65625 184.089844 C 143.019531 183.664062 142.429688 183.179688 141.886719 182.636719 C 141.34375 182.09375 140.863281 181.503906 140.433594 180.867188 C 140.007812 180.230469 139.648438 179.558594 139.355469 178.847656 C 139.0625 178.140625 138.839844 177.410156 138.691406 176.65625 C 138.542969 175.90625 138.46875 175.144531 138.46875 174.378906 C 138.46875 173.613281 138.542969 172.851562 138.691406 172.101562 C 138.839844 171.347656 139.0625 170.617188 139.355469 169.910156 C 139.648438 169.203125 140.007812 168.527344 140.433594 167.890625 C 140.863281 167.253906 141.34375 166.664062 141.886719 166.121094 C 142.429688 165.578125 143.019531 165.09375 143.65625 164.667969 C 144.296875 164.242188 144.96875 163.882812 145.675781 163.589844 C 146.386719 163.296875 147.117188 163.074219 147.867188 162.925781 C 148.621094 162.777344 149.378906 162.699219 150.144531 162.699219 C 150.914062 162.699219 151.671875 162.777344 152.425781 162.925781 C 153.175781 163.074219 153.90625 163.296875 154.617188 163.589844 C 155.324219 163.882812 155.996094 164.242188 156.632812 164.667969 C 157.273438 165.09375 157.863281 165.578125 158.402344 166.121094 C 158.945312 166.664062 159.429688 167.253906 159.855469 167.890625 C 160.28125 168.527344 160.640625 169.203125 160.9375 169.910156 C 161.230469 170.617188 161.449219 171.347656 161.601562 172.101562 C 161.75 172.851562 161.824219 173.613281 161.824219 174.378906 Z M 161.824219 174.378906 " fill-opacity="1" fill-rule="nonzero"/><path fill="#d9d9d9" d="M 150.144531 174.378906 C 149.761719 174.378906 149.382812 174.34375 149.007812 174.265625 C 148.628906 174.191406 148.265625 174.082031 147.910156 173.933594 C 147.558594 173.789062 147.21875 173.609375 146.902344 173.394531 C 146.582031 173.183594 146.289062 172.941406 146.015625 172.667969 C 145.746094 172.398438 145.503906 172.101562 145.289062 171.785156 C 145.078125 171.464844 144.898438 171.128906 144.75 170.773438 C 144.605469 170.421875 144.492188 170.054688 144.417969 169.679688 C 144.34375 169.304688 144.304688 168.921875 144.304688 168.539062 L 144.304688 133.503906 C 144.304688 133.121094 144.34375 132.742188 144.417969 132.363281 C 144.492188 131.988281 144.605469 131.625 144.75 131.269531 C 144.898438 130.914062 145.078125 130.578125 145.289062 130.257812 C 145.503906 129.941406 145.746094 129.644531 146.015625 129.375 C 146.289062 129.101562 146.582031 128.863281 146.902344 128.648438 C 147.21875 128.433594 147.558594 128.253906 147.910156 128.109375 C 148.265625 127.960938 148.628906 127.851562 149.007812 127.777344 C 149.382812 127.703125 149.761719 127.664062 150.144531 127.664062 C 150.53125 127.664062 150.910156 127.703125 151.285156 127.777344 C 151.660156 127.851562 152.027344 127.960938 152.378906 128.109375 C 152.734375 128.253906 153.070312 128.433594 153.390625 128.648438 C 153.707031 128.863281 154.003906 129.101562 154.273438 129.375 C 154.546875 129.644531 154.789062 129.941406 155 130.257812 C 155.214844 130.578125 155.394531 130.914062 155.539062 131.269531 C 155.6875 131.625 155.796875 131.988281 155.875 132.363281 C 155.949219 132.742188 155.984375 133.121094 155.984375 133.503906 L 155.984375 168.539062 C 155.984375 168.921875 155.949219 169.304688 155.875 169.679688 C 155.796875 170.054688 155.6875 170.421875 155.539062 170.773438 C 155.394531 171.128906 155.214844 171.464844 155 171.785156 C 154.789062 172.101562 154.546875 172.398438 154.273438 172.667969 C 154.003906 172.941406 153.707031 173.183594 153.390625 173.394531 C 153.070312 173.609375 152.734375 173.789062 152.378906 173.933594 C 152.027344 174.082031 151.660156 174.191406 151.285156 174.265625 C 150.910156 174.34375 150.53125 174.378906 150.144531 174.378906 Z M 150.144531 174.378906 " fill-opacity="1" fill-rule="nonzero"/><path fill="#d9d9d9" d="M 167.664062 151.023438 C 166.890625 151.023438 166.144531 150.875 165.429688 150.578125 C 164.714844 150.28125 164.082031 149.859375 163.535156 149.3125 L 151.855469 137.632812 C 151.59375 137.359375 151.359375 137.0625 151.152344 136.746094 C 150.945312 136.425781 150.773438 136.089844 150.632812 135.738281 C 150.492188 135.386719 150.386719 135.023438 150.316406 134.652344 C 150.246094 134.28125 150.214844 133.902344 150.21875 133.523438 C 150.222656 133.144531 150.261719 132.769531 150.335938 132.398438 C 150.414062 132.027344 150.523438 131.667969 150.671875 131.316406 C 150.820312 130.96875 150.996094 130.636719 151.207031 130.320312 C 151.421875 130.003906 151.660156 129.714844 151.929688 129.445312 C 152.195312 129.179688 152.488281 128.9375 152.800781 128.726562 C 153.117188 128.515625 153.449219 128.335938 153.800781 128.191406 C 154.148438 128.042969 154.507812 127.933594 154.878906 127.855469 C 155.253906 127.777344 155.628906 127.738281 156.007812 127.734375 C 156.386719 127.734375 156.761719 127.765625 157.132812 127.835938 C 157.507812 127.90625 157.867188 128.011719 158.222656 128.152344 C 158.574219 128.292969 158.910156 128.464844 159.226562 128.671875 C 159.546875 128.878906 159.839844 129.113281 160.113281 129.375 L 171.792969 141.054688 C 172.199219 141.460938 172.542969 141.921875 172.8125 142.429688 C 173.085938 142.941406 173.277344 143.476562 173.390625 144.042969 C 173.503906 144.609375 173.53125 145.179688 173.472656 145.753906 C 173.417969 146.328125 173.277344 146.882812 173.058594 147.417969 C 172.835938 147.949219 172.542969 148.441406 172.175781 148.886719 C 171.8125 149.332031 171.386719 149.714844 170.90625 150.039062 C 170.429688 150.359375 169.910156 150.601562 169.359375 150.769531 C 168.804688 150.9375 168.242188 151.023438 167.664062 151.023438 Z M 167.664062 151.023438 " fill-opacity="1" fill-rule="nonzero"/><path fill="#d9d9d9" d="M 144.304688 127.664062 C 143.53125 127.664062 142.785156 127.519531 142.070312 127.222656 C 141.355469 126.925781 140.722656 126.503906 140.179688 125.953125 L 129.082031 114.859375 C 128.820312 114.585938 128.585938 114.289062 128.378906 113.972656 C 128.171875 113.652344 128 113.316406 127.859375 112.964844 C 127.71875 112.613281 127.613281 112.25 127.542969 111.878906 C 127.472656 111.507812 127.441406 111.128906 127.445312 110.75 C 127.449219 110.371094 127.488281 109.996094 127.5625 109.625 C 127.640625 109.253906 127.75 108.894531 127.898438 108.542969 C 128.042969 108.195312 128.222656 107.863281 128.433594 107.546875 C 128.644531 107.230469 128.886719 106.941406 129.152344 106.671875 C 129.421875 106.40625 129.714844 106.164062 130.027344 105.953125 C 130.34375 105.742188 130.675781 105.5625 131.023438 105.417969 C 131.375 105.269531 131.734375 105.160156 132.105469 105.082031 C 132.476562 105.003906 132.855469 104.964844 133.234375 104.960938 C 133.613281 104.960938 133.988281 104.992188 134.359375 105.0625 C 134.734375 105.132812 135.09375 105.238281 135.449219 105.378906 C 135.800781 105.519531 136.136719 105.691406 136.453125 105.898438 C 136.773438 106.101562 137.066406 106.339844 137.339844 106.601562 L 148.433594 117.695312 C 148.84375 118.105469 149.183594 118.5625 149.457031 119.074219 C 149.726562 119.582031 149.921875 120.121094 150.03125 120.6875 C 150.144531 121.253906 150.171875 121.824219 150.117188 122.398438 C 150.058594 122.972656 149.921875 123.527344 149.699219 124.058594 C 149.480469 124.59375 149.1875 125.082031 148.820312 125.527344 C 148.453125 125.976562 148.03125 126.359375 147.550781 126.679688 C 147.070312 127 146.554688 127.246094 146 127.414062 C 145.449219 127.582031 144.882812 127.664062 144.304688 127.664062 Z M 144.304688 127.664062 " fill-opacity="1" fill-rule="nonzero"/><path fill="#d9d9d9" d="M 150.144531 209.335938 C 147.746094 209.359375 145.425781 208.925781 143.195312 208.039062 C 140.964844 207.148438 138.984375 205.871094 137.257812 204.203125 L 96.964844 163.910156 C 96.558594 163.480469 96.171875 163.03125 95.808594 162.5625 C 95.445312 162.097656 95.101562 161.613281 94.785156 161.113281 C 94.464844 160.613281 94.171875 160.101562 93.898438 159.574219 C 93.628906 159.046875 93.386719 158.507812 93.167969 157.957031 C 92.945312 157.40625 92.753906 156.847656 92.589844 156.277344 C 92.421875 155.710938 92.285156 155.132812 92.171875 154.554688 C 92.058594 153.972656 91.976562 153.386719 91.921875 152.796875 C 91.863281 152.207031 91.835938 151.613281 91.835938 151.023438 C 91.835938 150.429688 91.863281 149.839844 91.921875 149.25 C 91.976562 148.660156 92.058594 148.074219 92.171875 147.492188 C 92.285156 146.910156 92.421875 146.332031 92.589844 145.765625 C 92.753906 145.195312 92.945312 144.636719 93.167969 144.085938 C 93.386719 143.535156 93.628906 142.996094 93.898438 142.46875 C 94.171875 141.941406 94.464844 141.429688 94.785156 140.929688 C 95.101562 140.429688 95.445312 139.949219 95.808594 139.480469 C 96.171875 139.011719 96.558594 138.566406 96.964844 138.132812 L 137.257812 97.84375 C 137.6875 97.433594 138.136719 97.050781 138.605469 96.683594 C 139.070312 96.320312 139.554688 95.976562 140.054688 95.660156 C 140.554688 95.339844 141.066406 95.042969 141.59375 94.773438 C 142.121094 94.503906 142.660156 94.257812 143.210938 94.039062 C 143.761719 93.820312 144.320312 93.628906 144.890625 93.460938 C 145.457031 93.296875 146.035156 93.15625 146.617188 93.046875 C 147.199219 92.933594 147.785156 92.851562 148.375 92.792969 C 148.964844 92.738281 149.554688 92.710938 150.148438 92.710938 C 150.738281 92.710938 151.332031 92.738281 151.921875 92.792969 C 152.511719 92.851562 153.097656 92.933594 153.679688 93.046875 C 154.261719 93.15625 154.835938 93.296875 155.40625 93.460938 C 155.972656 93.628906 156.535156 93.820312 157.085938 94.039062 C 157.632812 94.257812 158.171875 94.503906 158.699219 94.773438 C 159.226562 95.042969 159.742188 95.339844 160.242188 95.660156 C 160.742188 95.976562 161.222656 96.320312 161.691406 96.683594 C 162.15625 97.050781 162.605469 97.433594 163.035156 97.84375 L 203.328125 138.132812 C 203.734375 138.566406 204.121094 139.011719 204.484375 139.480469 C 204.851562 139.949219 205.191406 140.429688 205.511719 140.929688 C 205.832031 141.429688 206.125 141.941406 206.394531 142.46875 C 206.664062 142.996094 206.910156 143.535156 207.128906 144.085938 C 207.347656 144.636719 207.539062 145.195312 207.707031 145.765625 C 207.871094 146.332031 208.011719 146.910156 208.121094 147.492188 C 208.234375 148.074219 208.316406 148.660156 208.375 149.25 C 208.429688 149.839844 208.457031 150.429688 208.457031 151.023438 C 208.457031 151.613281 208.429688 152.207031 208.375 152.796875 C 208.316406 153.386719 208.234375 153.972656 208.121094 154.554688 C 208.011719 155.132812 207.871094 155.710938 207.707031 156.277344 C 207.539062 156.847656 207.347656 157.40625 207.128906 157.957031 C 206.910156 158.507812 206.664062 159.046875 206.394531 159.574219 C 206.125 160.101562 205.832031 160.613281 205.511719 161.113281 C 205.191406 161.613281 204.851562 162.097656 204.484375 162.5625 C 204.121094 163.03125 203.734375 163.480469 203.328125 163.910156 L 163.035156 204.203125 C 161.308594 205.871094 159.328125 207.152344 157.097656 208.039062 C 154.867188 208.929688 152.546875 209.359375 150.144531 209.335938 Z M 150.144531 104.386719 C 149.292969 104.359375 148.464844 104.496094 147.664062 104.789062 C 146.863281 105.085938 146.148438 105.523438 145.519531 106.097656 L 105.226562 146.390625 C 104.953125 146.710938 104.710938 147.054688 104.496094 147.417969 C 104.285156 147.78125 104.105469 148.160156 103.957031 148.554688 C 103.8125 148.949219 103.703125 149.355469 103.628906 149.769531 C 103.554688 150.183594 103.519531 150.601562 103.519531 151.023438 C 103.519531 151.441406 103.554688 151.859375 103.628906 152.273438 C 103.703125 152.691406 103.8125 153.09375 103.957031 153.488281 C 104.105469 153.886719 104.285156 154.265625 104.496094 154.628906 C 104.710938 154.992188 104.953125 155.332031 105.226562 155.652344 L 145.519531 195.945312 C 146.175781 196.472656 146.898438 196.875 147.691406 197.15625 C 148.488281 197.433594 149.304688 197.574219 150.144531 197.574219 C 150.988281 197.574219 151.804688 197.433594 152.597656 197.15625 C 153.394531 196.875 154.117188 196.472656 154.773438 195.945312 L 195.066406 155.652344 C 195.339844 155.332031 195.582031 154.992188 195.796875 154.628906 C 196.007812 154.265625 196.1875 153.886719 196.332031 153.488281 C 196.480469 153.09375 196.589844 152.691406 196.664062 152.273438 C 196.738281 151.859375 196.773438 151.441406 196.773438 151.023438 C 196.773438 150.601562 196.738281 150.183594 196.664062 149.769531 C 196.589844 149.355469 196.480469 148.949219 196.332031 148.554688 C 196.1875 148.160156 196.007812 147.78125 195.796875 147.417969 C 195.582031 147.054688 195.339844 146.710938 195.066406 146.390625 L 154.773438 106.097656 C 154.144531 105.523438 153.429688 105.085938 152.628906 104.792969 C 151.828125 104.496094 151 104.359375 150.144531 104.386719 Z M 150.144531 104.386719 " fill-opacity="1" fill-rule="nonzero"/></svg>