<svg xmlns="http://www.w3.org/2000/svg" xmlns:xlink="http://www.w3.org/1999/xlink" width="400" zoomAndPan="magnify" viewBox="0 0 300 299.999988" height="400" preserveAspectRatio="xMidYMid meet" version="1.0"><defs><clipPath id="06ed946da4"><path d="M 106 90 L 204.898438 90 L 204.898438 210 L 106 210 Z M 106 90 " clip-rule="nonzero"/></clipPath><clipPath id="bfb4d9aa01"><path d="M 95.398438 167 L 144 167 L 144 191 L 95.398438 191 Z M 95.398438 167 " clip-rule="nonzero"/></clipPath></defs><g clip-path="url(#06ed946da4)"><path fill="#d9d9d9" d="M 172.273438 209.96875 C 171.992188 209.96875 171.710938 209.941406 171.433594 209.882812 C 171.15625 209.828125 170.886719 209.746094 170.625 209.640625 C 170.363281 209.53125 170.113281 209.398438 169.878906 209.242188 C 169.640625 209.085938 169.425781 208.90625 169.222656 208.707031 C 169.023438 208.507812 168.84375 208.289062 168.6875 208.054688 C 168.53125 207.820312 168.398438 207.570312 168.289062 207.3125 C 168.179688 207.050781 168.097656 206.78125 168.042969 206.503906 C 167.988281 206.226562 167.960938 205.945312 167.960938 205.664062 L 167.960938 183.410156 C 167.960938 183.25 167.96875 183.089844 167.984375 182.929688 C 168.152344 181.480469 168.171875 180.03125 168.054688 178.578125 C 167.933594 177.121094 167.671875 175.695312 167.269531 174.292969 C 166.867188 172.890625 166.332031 171.539062 165.664062 170.242188 C 164.996094 168.945312 164.207031 167.726562 163.300781 166.582031 C 162.789062 165.933594 162.488281 165.199219 162.398438 164.382812 C 162.3125 163.5625 162.445312 162.78125 162.808594 162.039062 C 163.167969 161.296875 163.699219 160.707031 164.398438 160.269531 C 165.101562 159.832031 165.863281 159.617188 166.691406 159.617188 C 180.835938 159.617188 195.867188 150.394531 195.867188 133.304688 C 195.867188 133.210938 195.867188 133.121094 195.867188 133.03125 C 196.054688 130.058594 195.742188 127.136719 194.921875 124.273438 C 194.101562 121.40625 192.824219 118.761719 191.089844 116.332031 C 190.722656 115.824219 190.480469 115.261719 190.363281 114.644531 C 190.242188 114.03125 190.257812 113.417969 190.40625 112.808594 C 191.453125 108.492188 191.710938 104.128906 191.179688 99.71875 C 188.789062 100.699219 185.199219 102.570312 180.429688 106.140625 C 179.945312 106.503906 179.40625 106.753906 178.816406 106.890625 C 178.226562 107.023438 177.632812 107.035156 177.039062 106.925781 C 169.925781 105.574219 162.753906 104.902344 155.515625 104.902344 C 148.277344 104.902344 141.101562 105.574219 133.992188 106.925781 C 133.398438 107.035156 132.804688 107.023438 132.214844 106.890625 C 131.625 106.753906 131.085938 106.503906 130.601562 106.140625 C 125.804688 102.523438 122.195312 100.664062 119.808594 99.691406 C 119.234375 104.09375 119.511719 108.445312 120.636719 112.742188 C 120.796875 113.359375 120.820312 113.984375 120.703125 114.613281 C 120.585938 115.238281 120.339844 115.8125 119.964844 116.332031 C 118.226562 118.757812 116.949219 121.402344 116.125 124.269531 C 115.304688 127.132812 114.992188 130.054688 115.179688 133.027344 C 115.179688 133.121094 115.179688 133.214844 115.179688 133.3125 C 115.179688 150.398438 130.214844 159.621094 144.355469 159.621094 C 145.183594 159.621094 145.949219 159.839844 146.652344 160.277344 C 147.355469 160.71875 147.886719 161.308594 148.246094 162.054688 C 148.605469 162.796875 148.738281 163.582031 148.648438 164.402344 C 148.554688 165.222656 148.25 165.957031 147.734375 166.601562 C 145.890625 168.894531 144.566406 171.453125 143.765625 174.277344 C 142.957031 177.113281 142.722656 179.996094 143.0625 182.921875 C 143.082031 183.082031 143.09375 183.242188 143.089844 183.402344 L 143.089844 205.664062 C 143.089844 205.945312 143.0625 206.226562 143.007812 206.503906 C 142.953125 206.78125 142.871094 207.050781 142.761719 207.3125 C 142.65625 207.570312 142.523438 207.820312 142.363281 208.054688 C 142.207031 208.289062 142.027344 208.507812 141.828125 208.707031 C 141.628906 208.90625 141.410156 209.085938 141.175781 209.242188 C 140.9375 209.398438 140.691406 209.53125 140.429688 209.640625 C 140.167969 209.746094 139.898438 209.828125 139.617188 209.882812 C 139.339844 209.941406 139.058594 209.96875 138.777344 209.96875 C 138.492188 209.96875 138.214844 209.941406 137.933594 209.882812 C 137.65625 209.828125 137.386719 209.746094 137.125 209.640625 C 136.863281 209.53125 136.617188 209.398438 136.378906 209.242188 C 136.144531 209.085938 135.925781 208.90625 135.726562 208.707031 C 135.527344 208.507812 135.347656 208.289062 135.191406 208.054688 C 135.03125 207.820312 134.898438 207.570312 134.792969 207.3125 C 134.683594 207.050781 134.601562 206.78125 134.546875 206.503906 C 134.492188 206.226562 134.460938 205.945312 134.460938 205.664062 L 134.460938 183.636719 C 134.039062 179.671875 134.371094 175.769531 135.464844 171.933594 C 135.886719 170.441406 136.417969 168.992188 137.0625 167.582031 C 133.671875 167.011719 130.410156 166.015625 127.273438 164.601562 C 124.140625 163.183594 121.242188 161.390625 118.574219 159.222656 C 110.867188 152.8125 106.617188 143.667969 106.5625 133.449219 C 106.34375 129.847656 106.6875 126.300781 107.585938 122.804688 C 108.484375 119.3125 109.898438 116.039062 111.828125 112.984375 C 111.136719 109.726562 110.828125 106.429688 110.90625 103.097656 C 110.980469 99.765625 111.441406 96.488281 112.28125 93.265625 C 112.402344 92.804688 112.59375 92.375 112.859375 91.976562 C 113.121094 91.578125 113.441406 91.234375 113.820312 90.945312 C 114.199219 90.652344 114.613281 90.429688 115.0625 90.277344 C 115.515625 90.121094 115.980469 90.046875 116.457031 90.046875 C 117.582031 90.046875 123.507812 90.449219 134.253906 98.132812 C 148.4375 95.664062 162.617188 95.664062 176.800781 98.132812 C 187.546875 90.449219 193.480469 90.046875 194.597656 90.046875 C 195.082031 90.046875 195.550781 90.125 196.007812 90.28125 C 196.464844 90.4375 196.882812 90.667969 197.261719 90.964844 C 197.644531 91.261719 197.964844 91.613281 198.226562 92.019531 C 198.488281 92.421875 198.675781 92.859375 198.789062 93.328125 C 200.378906 99.839844 200.519531 106.382812 199.222656 112.957031 C 201.15625 116.011719 202.574219 119.289062 203.476562 122.789062 C 204.378906 126.289062 204.722656 129.839844 204.507812 133.449219 C 204.46875 143.664062 200.191406 152.808594 192.492188 159.222656 C 189.820312 161.394531 186.914062 163.1875 183.777344 164.601562 C 180.636719 166.019531 177.371094 167.015625 173.972656 167.589844 C 175.125 170.097656 175.921875 172.710938 176.367188 175.433594 C 176.8125 178.15625 176.890625 180.890625 176.601562 183.632812 L 176.601562 205.664062 C 176.601562 205.949219 176.574219 206.226562 176.519531 206.503906 C 176.464844 206.78125 176.382812 207.050781 176.273438 207.3125 C 176.164062 207.574219 176.03125 207.824219 175.871094 208.058594 C 175.714844 208.292969 175.535156 208.511719 175.332031 208.710938 C 175.132812 208.910156 174.914062 209.089844 174.675781 209.246094 C 174.441406 209.402344 174.191406 209.535156 173.929688 209.644531 C 173.667969 209.75 173.394531 209.832031 173.117188 209.886719 C 172.839844 209.941406 172.558594 209.96875 172.273438 209.96875 Z M 172.273438 209.96875 " fill-opacity="1" fill-rule="nonzero"/></g><g clip-path="url(#bfb4d9aa01)"><path fill="#d9d9d9" d="M 126.144531 190.800781 C 116.601562 190.800781 110.957031 185.328125 106.808594 181.300781 C 103.789062 178.371094 101.824219 176.566406 99.714844 176.566406 C 99.429688 176.566406 99.152344 176.539062 98.871094 176.484375 C 98.59375 176.429688 98.324219 176.347656 98.0625 176.238281 C 97.800781 176.132812 97.554688 176 97.316406 175.84375 C 97.082031 175.683594 96.863281 175.507812 96.664062 175.308594 C 96.464844 175.109375 96.285156 174.890625 96.128906 174.65625 C 95.96875 174.421875 95.835938 174.171875 95.726562 173.910156 C 95.621094 173.652344 95.539062 173.382812 95.484375 173.105469 C 95.425781 172.828125 95.398438 172.546875 95.398438 172.265625 C 95.398438 171.984375 95.425781 171.703125 95.484375 171.425781 C 95.539062 171.148438 95.621094 170.878906 95.726562 170.617188 C 95.835938 170.359375 95.96875 170.109375 96.128906 169.875 C 96.285156 169.640625 96.464844 169.421875 96.664062 169.222656 C 96.863281 169.023438 97.082031 168.84375 97.316406 168.6875 C 97.554688 168.53125 97.800781 168.398438 98.0625 168.289062 C 98.324219 168.183594 98.59375 168.101562 98.871094 168.046875 C 99.152344 167.988281 99.429688 167.960938 99.714844 167.960938 C 105.433594 167.960938 109.363281 171.769531 112.820312 175.125 C 118.542969 180.671875 123.484375 185.453125 137.035156 179.46875 C 137.292969 179.347656 137.5625 179.257812 137.839844 179.191406 C 138.117188 179.125 138.398438 179.085938 138.6875 179.078125 C 138.972656 179.066406 139.253906 179.085938 139.535156 179.132812 C 139.820312 179.175781 140.09375 179.25 140.359375 179.351562 C 140.628906 179.453125 140.882812 179.578125 141.125 179.730469 C 141.367188 179.878906 141.589844 180.054688 141.800781 180.25 C 142.007812 180.445312 142.191406 180.660156 142.359375 180.890625 C 142.523438 181.125 142.664062 181.371094 142.78125 181.632812 C 142.894531 181.890625 142.984375 182.160156 143.046875 182.441406 C 143.109375 182.71875 143.144531 183 143.148438 183.285156 C 143.15625 183.570312 143.132812 183.851562 143.082031 184.132812 C 143.03125 184.414062 142.957031 184.683594 142.851562 184.949219 C 142.746094 185.214844 142.617188 185.46875 142.460938 185.707031 C 142.308594 185.945312 142.128906 186.167969 141.933594 186.371094 C 141.734375 186.578125 141.515625 186.761719 141.28125 186.921875 C 141.042969 187.082031 140.796875 187.21875 140.53125 187.332031 C 134.921875 189.820312 130.183594 190.800781 126.144531 190.800781 Z M 126.144531 190.800781 " fill-opacity="1" fill-rule="nonzero"/></g></svg>