<svg xmlns="http://www.w3.org/2000/svg" xmlns:xlink="http://www.w3.org/1999/xlink" width="500" zoomAndPan="magnify" viewBox="0 0 375 374.999991" height="500" preserveAspectRatio="xMidYMid meet" version="1.0"><defs><clipPath id="44ac91a53f"><path d="M 75.464844 177 L 98 177 L 98 245 L 75.464844 245 Z M 75.464844 177 " clip-rule="nonzero"/></clipPath><clipPath id="b5de5d7208"><path d="M 277 177 L 299.714844 177 L 299.714844 245 L 277 245 Z M 277 177 " clip-rule="nonzero"/></clipPath><clipPath id="a664dc0cd0"><path d="M 105 155 L 143 155 L 143 259.929688 L 105 259.929688 Z M 105 155 " clip-rule="nonzero"/></clipPath><clipPath id="d7453ad101"><path d="M 232 155 L 270 155 L 270 259.929688 L 232 259.929688 Z M 232 155 " clip-rule="nonzero"/></clipPath></defs><g clip-path="url(#44ac91a53f)"><path fill="#d9d9d9" d="M 97.886719 177.519531 L 82.9375 177.519531 C 75.464844 177.519531 75.464844 182.394531 75.464844 184.972656 L 75.464844 237.148438 C 75.464844 239.726562 75.464844 244.601562 82.9375 244.601562 L 97.886719 244.601562 Z M 97.886719 177.519531 " fill-opacity="1" fill-rule="nonzero"/></g><path fill="#d9d9d9" d="M 150.214844 192.425781 L 224.964844 192.425781 L 224.964844 222.242188 L 150.214844 222.242188 Z M 150.214844 192.425781 " fill-opacity="1" fill-rule="nonzero"/><g clip-path="url(#b5de5d7208)"><path fill="#d9d9d9" d="M 292.238281 177.519531 L 277.289062 177.519531 L 277.289062 244.601562 L 292.238281 244.601562 C 299.714844 244.601562 299.714844 239.726562 299.714844 237.148438 L 299.714844 184.972656 C 299.714844 182.394531 299.714844 177.519531 292.238281 177.519531 Z M 292.238281 177.519531 " fill-opacity="1" fill-rule="nonzero"/></g><g clip-path="url(#a664dc0cd0)"><path fill="#d9d9d9" d="M 142.738281 194.289062 L 142.738281 162.613281 C 142.738281 160.035156 142.738281 155.160156 135.261719 155.160156 L 112.839844 155.160156 C 105.363281 155.160156 105.363281 160.035156 105.363281 162.613281 L 105.363281 252.054688 C 105.363281 254.632812 105.363281 259.507812 112.839844 259.507812 L 135.261719 259.507812 C 142.738281 259.507812 142.738281 254.632812 142.738281 252.054688 Z M 142.738281 194.289062 " fill-opacity="1" fill-rule="nonzero"/></g><g clip-path="url(#d7453ad101)"><path fill="#d9d9d9" d="M 269.8125 240.875 L 269.8125 162.613281 C 269.8125 160.035156 269.8125 155.160156 262.339844 155.160156 L 239.316406 155.160156 C 232.4375 155.160156 232.4375 160.035156 232.4375 162.613281 L 232.4375 252.054688 C 232.4375 254.632812 232.4375 259.507812 239.316406 259.507812 L 262.339844 259.507812 C 269.8125 259.507812 269.8125 254.632812 269.8125 252.054688 Z M 269.8125 240.875 " fill-opacity="1" fill-rule="nonzero"/></g></svg>