<svg width="850" height="511" viewBox="0 0 850 511" fill="none" xmlns="http://www.w3.org/2000/svg">
<g style="mix-blend-mode:lighten">
<path d="M2.03903 511H6.11709V510.5H10.1952V511H14.2732V510.5H18.3513V511H22.4293V510.5H26.5074V511H30.5855V510.5H34.6635V511H38.7416V510.5H42.8197V511H46.8977V510.5H50.9758V511H55.0539V510.5H59.1319V511H63.21V510.5H67.2881V511H71.3661V510.5H75.4442V511H79.5222V510.5H83.6003V511H87.6784V510.5H91.7564V511H95.8345V510.5H99.9126V511H103.991V510.5H108.069V511H112.147V510.5H116.225V511H120.303V510.5H124.381V511H128.459V510.5H132.537V511H136.615V510.5H138.154V509.004H138.654V505.012H138.154V501.02H138.654V497.027H138.154V493.035H138.654V489.043H138.154V485.051H138.654V481.059H138.154V477.066H138.654V473.074H138.154V469.082H138.654V465.09H138.154V461.098H138.654V457.105H138.154V453.113H138.654V449.121H138.154V445.129H138.654V441.137H138.154V437.145H138.654V433.152H138.154V429.16H138.654V425.168H138.154V421.176H138.654V417.184H138.154V413.191H138.654V409.199H138.154V405.207H138.654V401.215H138.154V397.223H138.654V393.23H138.154V389.238H138.654V385.246H138.154V381.254H138.654V377.262H138.154V373.27H138.654V369.277H138.154V365.285H138.654V361.293H138.154V357.301H138.654V353.309H138.154V349.316H138.654V345.324H138.154V341.332H138.654V337.34H138.154V333.348H138.654V329.355H138.154V325.363H138.654V321.371H138.154V317.379H138.654V313.387H138.154V311.391V310.891H138.654H140.649V311.391H144.639V310.891H148.629V311.391H152.619V310.891H156.609V311.391H160.599V310.891H164.59V311.391H168.58V310.891H172.57V311.391H176.56V310.891H180.55V311.391H184.54V310.891H188.53V311.391H192.52V310.891H196.51V311.391H200.5V310.891H204.49V311.391H208.48V310.891H212.47V311.391H216.46V310.891H220.45V311.391H224.44V310.891H228.43V311.391H232.42V310.891H236.41V311.391H240.4V310.891H244.39V311.391H248.38V310.891H252.371V311.391H256.361V310.891H260.351V311.391H264.341V310.891H268.331V311.391H272.321V310.891H276.311V311.391H280.301V310.891H284.291V311.391H288.281V310.891H292.271V311.391H296.261V310.891H300.251V311.391H304.241V310.891H308.231V311.391H312.221V310.891H316.211V311.391H320.201V310.891H322.196H322.696V311.391V313.387H322.196V317.379H322.696V321.371H322.196V325.363H322.696V329.355H322.196V333.348H322.696V337.34H322.196V341.332H322.696V345.324H322.196V349.316H322.696V353.309H322.196V357.301H322.696V361.293H322.196V365.285H322.696V369.277H322.196V373.27H322.696V377.262H322.196V381.254H322.696V385.246H322.196V389.238H322.696V393.23H322.196V397.223H322.696V401.215H322.196V405.207H322.696V409.199H322.196V413.191H322.696V417.184H322.196V421.176H322.696V425.168H322.196V429.16H322.696V433.152H322.196V437.145H322.696V441.137H322.196V445.129H322.696V449.121H322.196V453.113H322.696V457.105H322.196V461.098H322.696V465.09H322.196V469.082H322.696V473.074H322.196V477.066H322.696V481.059H322.196V485.051H322.696V489.043H322.196V493.035H322.696V497.027H322.196V501.02H322.696V505.012H322.196V509.004H322.696V510.5H324.235V511H328.313V510.5H332.392V511H336.47V510.5H340.548V511H344.626V510.5H348.704V511H352.782V510.5H356.86V511H360.938V510.5H365.016V511H369.094V510.5H373.172V511H377.25V510.5H381.328V511H385.406V510.5H389.484V511H393.562V510.5H397.641V511H401.719V510.5H405.797V511H409.875V510.5H413.953V511H418.031V510.5H422.109V511H426.187V510.5H430.265V511H434.343V510.5H438.421V511H442.499V510.5H446.577V511H450.655V510.5H454.733V511H458.811V510.5H460.351V509.004H460.851V505.012H460.351V501.02H460.851V497.027H460.351V493.035H460.851V489.043H460.351V485.051H460.851V481.059H460.351V477.066H460.851V473.074H460.351V469.082H460.851V465.09H460.351V461.098H460.851V457.105H460.351V453.113H460.851V449.121H460.351V445.129H460.851V441.137H460.351V437.145H460.851V433.152H460.351V429.16H460.851V425.168H460.351V421.176H460.851V417.184H460.351V413.191H460.851V409.199H460.351V405.207H460.851V401.215H460.351V397.223H460.851V393.23H460.351V389.238H460.851V385.246H460.351V381.254H460.851V377.262H460.351V373.27H460.851V369.277H460.351V365.285H460.851V361.293H460.351V357.301H460.851V353.309H460.351V349.316H460.851V345.324H460.351V341.332H460.851V337.34H460.351V333.348H460.851V329.355H460.351V325.363H460.851V321.371H460.351V317.379H460.851V313.387H460.351V309.395H460.851V305.402H460.351V301.41H460.851V297.418H460.351V293.426H460.851V289.434H460.351V285.441H460.851V281.449H460.351V277.457H460.851V273.465H460.351V269.473H460.851V265.48H460.351V261.488H460.851V257.496H460.351V253.504H460.851V249.512H460.351V245.52H460.851V241.527H460.351V237.535H460.851V233.543H460.351V229.551H460.851V225.559H460.351V221.566H460.851V217.574H460.351V213.582H460.851V209.59H460.351V205.598H460.851V201.605H460.351V197.613H460.851V193.621H460.351V189.629H460.851V185.637H460.351V181.645H460.851V177.652H460.351V173.66H460.851V169.668H460.351V165.676H460.851V161.684H460.351V157.691H460.851V153.699H460.351V149.707H460.851V145.715H460.351V141.723H460.851V137.73H460.351V133.738H460.851V129.746H460.351V125.754H460.851V121.762H460.351V117.77H460.851V113.777H460.351V109.785H460.851V105.793H460.351V101.801H460.851V97.8086H460.351V93.8164H460.851V89.8242H460.351V85.832H460.851V81.8398H460.351V77.8477H460.851V73.8555H460.351V69.8633H460.851V65.8711H460.351V61.8789H460.851V57.8867H460.351V53.8945H460.851V49.9023H460.351V45.9102H460.851V41.918H460.351V37.9258H460.851V33.9336H460.351V29.9414H460.851V25.9492H460.351V21.957H460.851V17.9648H460.351V13.9727H460.851V9.98047H460.351V5.98828H460.851V1.99609H460.351V0.5H458.811V0H454.733V0.5H450.655V0H446.577V0.5H442.499V0H438.421V0.5H434.343V0H430.265V0.5H426.187V0H422.109V0.5H418.031V0H413.953V0.5H409.875V0H405.797V0.5H401.719V0H397.641V0.5H393.562V0H389.484V0.5H385.406V0H381.328V0.5H377.25V0H373.172V0.5H369.094V0H365.016V0.5H360.938V0H356.86V0.5H352.782V0H348.704V0.5H344.626V0H340.548V0.5H336.47V0H332.392V0.5H328.313V0H324.235V0.5H322.696V1.99609H322.196V5.98828H322.696V9.98047H322.196V13.9727H322.696V17.9648H322.196V21.957H322.696V25.9492H322.196V29.9414H322.696V33.9336H322.196V37.9258H322.696V41.918H322.196V45.9102H322.696V49.9023H322.196V53.8945H322.696V57.8867H322.196V61.8789H322.696V65.8711H322.196V69.8633H322.696V73.8555H322.196V77.8477H322.696V81.8399H322.196V85.832H322.696V89.8242H322.196V93.8164H322.696V97.8086H322.196V101.801H322.696V105.793H322.196V109.785H322.696V113.777H322.196V117.77H322.696V121.762H322.196V125.754H322.696V129.746H322.196V133.738H322.696V137.73H322.196V141.723H322.696V145.715H322.196V149.707H322.696V153.699H322.196V157.691H322.696V161.684H322.196V165.676H322.696V169.668H322.196V173.66H322.696V177.652H322.196V181.645H322.696V185.637H322.196V189.629H322.696V193.621H322.196V197.613H322.696V199.609V200.109H322.196H320.201V199.609H316.211V200.109H312.221V199.609H308.231V200.109H304.241V199.609H300.251V200.109H296.261V199.609H292.271V200.109H288.281V199.609H284.291V200.109H280.301V199.609H276.311V200.109H272.321V199.609H268.331V200.109H264.341V199.609H260.351V200.109H256.361V199.609H252.37V200.109H248.38V199.609H244.39V200.109H240.4V199.609H236.41V200.109H232.42V199.609H228.43V200.109H224.44V199.609H220.45V200.109H216.46V199.609H212.47V200.109H208.48V199.609H204.49V200.109H200.5V199.609H196.51V200.109H192.52V199.609H188.53V200.109H184.54V199.609H180.55V200.109H176.56V199.609H172.57V200.109H168.58V199.609H164.589V200.109H160.599V199.609H156.609V200.109H152.619V199.609H148.629V200.109H144.639V199.609H140.649V200.109H138.654H138.154V199.609V197.613H138.654V193.621H138.154V189.629H138.654V185.637H138.154V181.645H138.654V177.652H138.154V173.66H138.654V169.668H138.154V165.676H138.654V161.684H138.154V157.691H138.654V153.699H138.154V149.707H138.654V145.715H138.154V141.723H138.654V137.73H138.154V133.738H138.654V129.746H138.154V125.754H138.654V121.762H138.154V117.77H138.654V113.777H138.154V109.785H138.654V105.793H138.154V101.801H138.654V97.8086H138.154V93.8164H138.654V89.8242H138.154V85.832H138.654V81.8398H138.154V77.8477H138.654V73.8555H138.154V69.8633H138.654V65.8711H138.154V61.8789H138.654V57.8867H138.154V53.8945H138.654V49.9023H138.154V45.9102H138.654V41.918H138.154V37.9258H138.654V33.9336H138.154V29.9414H138.654V25.9492H138.154V21.957H138.654V17.9648H138.154V13.9727H138.654V9.98047H138.154V5.98828H138.654V1.99609H138.154V0.5H136.615V0H132.537V0.5H128.459V0H124.381V0.5H120.303V0H116.225V0.5H112.147V0H108.069V0.5H103.991V0H99.9126V0.5H95.8345V0H91.7564V0.5H87.6784V0H83.6003V0.5H79.5222V0H75.4442V0.5H71.3661V0H67.2881V0.5H63.21V0H59.1319V0.5H55.0539V0H50.9758V0.5H46.8977V0H42.8197V0.5H38.7416V0H34.6635V0.5H30.5855V0H26.5074V0.5H22.4294V0H18.3513V0.5H14.2732V0H10.1952V0.5H6.1171V0H2.03903V0.5H0.5V1.99609H0V5.98828H0.5V9.98047H0V13.9727H0.5V17.9648H0V21.957H0.5V25.9492H0V29.9414H0.5V33.9336H0V37.9258H0.5V41.918H0V45.9102H0.5V49.9023H0V53.8945H0.5V57.8867H0V61.8789H0.5V65.8711H0V69.8633H0.5V73.8555H0V77.8477H0.5V81.8398H0V85.832H0.5V89.8242H0V93.8164H0.5V97.8086H0V101.801H0.5V105.793H0V109.785H0.5V113.777H0V117.77H0.5V121.762H0V125.754H0.5V129.746H0V133.738H0.5V137.73H0V141.723H0.5V145.715H0V149.707H0.5V153.699H0V157.691H0.5V161.684H0V165.676H0.5V169.668H0V173.66H0.5V177.652H0V181.645H0.5V185.637H0V189.629H0.5V193.621H0V197.613H0.5V201.605H0V205.598H0.5V209.59H0V213.582H0.5V217.574H0V221.566H0.5V225.559H0V229.551H0.5V233.543H0V237.535H0.5V241.527H0V245.52H0.5V249.512H0V253.504H0.5V257.496H0V261.488H0.5V265.48H0V269.473H0.5V273.465H0V277.457H0.5V281.449H0V285.441H0.5V289.434H0V293.426H0.5V297.418H0V301.41H0.5V305.402H0V309.395H0.5V313.387H0V317.379H0.5V321.371H0V325.363H0.5V329.355H0V333.348H0.5V337.34H0V341.332H0.5V345.324H0V349.316H0.5V353.309H0V357.301H0.5V361.293H0V365.285H0.5V369.277H0V373.27H0.5V377.262H0V381.254H0.5V385.246H0V389.238H0.5V393.23H0V397.223H0.5V401.215H0V405.207H0.5V409.199H0V413.191H0.5V417.184H0V421.176H0.5V425.168H0V429.16H0.5V433.152H0V437.145H0.5V441.137H0V445.129H0.5V449.121H0V453.113H0.5V457.105H0V461.098H0.5V465.09H0V469.082H0.5V473.074H0V477.066H0.5V481.059H0V485.051H0.5V489.043H0V493.035H0.5V497.027H0V501.02H0.5V505.012H0V509.004H0.5V510.5H2.03903V511ZM535.806 111.781H539.842V111.281H543.877V111.781H547.913V111.281H551.948V111.781H555.983V111.281H560.019V111.781H564.054V111.281H568.089V111.781H572.125V111.281H576.16V111.781H580.196V111.281H584.231V111.781H588.266V111.281H592.302V111.781H596.337V111.281H600.373V111.781H604.408V111.281H608.443V111.781H612.479V111.281H616.514V111.781H620.549V111.281H622.567H623.067V111.781V113.777H622.567V117.77H623.067V121.762H622.567V125.754H623.067V129.746H622.567V133.738H623.067V137.73H622.567V141.723H623.067V145.715H622.567V149.707H623.067V153.699H622.567V157.691H623.067V161.684H622.567V165.676H623.067V169.668H622.567V173.66H623.067V177.652H622.567V181.645H623.067V185.637H622.567V189.629H623.067V193.621H622.567V197.613H623.067V201.605H622.567V205.598H623.067V209.59H622.567V213.582H623.067V217.574H622.567V221.566H623.067V225.559H622.567V229.551H623.067V233.543H622.567V237.535H623.067V241.527H622.567V245.52H623.067V249.512H622.567V253.504H623.067V257.496H622.567V261.488H623.067V265.48H622.567V269.473H623.067V273.465H622.567V277.457H623.067V281.449H622.567V285.441H623.067V289.434H622.567V293.426H623.067V297.418H622.567V301.41H623.067V305.402H622.567V309.395H623.067V313.387H622.567V317.379H623.067V321.371H622.567V325.363H623.067V329.355H622.567V333.348H623.067V337.34H622.567V341.332H623.067V345.324H622.567V349.316H623.067V353.309H622.567V357.301H623.067V361.293H622.567V365.285H623.067V369.277H622.567V373.27H623.067V377.262H622.567V381.254H623.067V385.246H622.567V389.238H623.067V393.23H622.567V397.223H623.067V399.219V399.719H622.567H620.549V399.219H616.514V399.719H612.479V399.219H608.443V399.719H604.408V399.219H600.373V399.719H596.337V399.219H592.302V399.719H588.266V399.219H584.231V399.719H580.196V399.219H576.16V399.719H572.125V399.219H568.089V399.719H564.054V399.219H560.019V399.719H555.983V399.219H551.948V399.719H547.913V399.219H543.877V399.719H539.842V399.219H535.806V399.719H534.289V401.215H533.789V405.207H534.289V409.199H533.789V413.191H534.289V417.184H533.789V421.176H534.289V425.168H533.789V429.16H534.289V433.152H533.789V437.145H534.289V441.137H533.789V445.129H534.289V449.121H533.789V453.113H534.289V457.105H533.789V461.098H534.289V465.09H533.789V469.082H534.289V473.074H533.789V477.066H534.289V481.059H533.789V485.051H534.289V489.043H533.789V493.035H534.289V497.027H533.789V501.02H534.289V505.012H533.789V509.004H534.289V510.5H535.765V511H539.718V510.5H543.67V511H547.623V510.5H551.576V511H555.528V510.5H559.481V511H563.434V510.5H567.386V511H571.339V510.5H575.292V511H579.244V510.5H583.197V511H587.149V510.5H591.102V511H595.055V510.5H599.007V511H602.96V510.5H606.913V511H610.865V510.5H614.818V511H618.771V510.5H622.723V511H626.676V510.5H630.628V511H634.581V510.5H638.534V511H642.486V510.5H646.439V511H650.392V510.5H654.344V511H658.297V510.5H662.25V511H666.202V510.5H670.155V511H674.107V510.5H678.06V511H682.013V510.5H685.965V511H689.918V510.5H693.871V511H697.823V510.5H701.776V511H705.729V510.5H709.681V511H713.634V510.5H717.586V511H721.539V510.5H725.492V511H729.444V510.5H733.397V511H737.35V510.5H741.302V511H745.255V510.5H749.208V511H753.16V510.5H757.113V511H761.066V510.5H765.018V511H768.971V510.5H772.924V511H776.876V510.5H780.829V511H784.781V510.5H788.734V511H792.687V510.5H796.639V511H800.592V510.5H804.545V511H808.497V510.5H812.45V511H816.403V510.5H820.355V511H824.308V510.5H828.26V511H832.213V510.5H836.166V511H840.118V510.5H844.071V511H848.024V510.5H849.5V509.004H850V505.012H849.5V501.02H850V497.027H849.5V493.035H850V489.043H849.5V485.051H850V481.059H849.5V477.066H850V473.074H849.5V469.082H850V465.09H849.5V461.098H850V457.105H849.5V453.113H850V449.121H849.5V445.129H850V441.137H849.5V437.145H850V433.152H849.5V429.16H850V425.168H849.5V421.176H850V417.184H849.5V413.191H850V409.199H849.5V405.207H850V401.215H849.5V399.719H847.982V399.219H843.947V399.719H839.912V399.219H835.876V399.719H831.841V399.219H827.805V399.719H823.77V399.219H819.735V399.719H815.699V399.219H811.664V399.719H807.628V399.219H803.593V399.719H799.558V399.219H795.522V399.719H791.487V399.219H787.451V399.719H783.416V399.219H779.381V399.719H775.345V399.219H771.31V399.719H767.275V399.219H763.239V399.719H761.221H760.721V399.219V397.223H761.221V393.23H760.721V389.238H761.221V385.246H760.721V381.254H761.221V377.262H760.721V373.27H761.221V369.277H760.721V365.285H761.221V361.293H760.721V357.301H761.221V353.309H760.721V349.316H761.221V345.324H760.721V341.332H761.221V337.34H760.721V333.348H761.221V329.355H760.721V325.363H761.221V321.371H760.721V317.379H761.221V313.387H760.721V309.395H761.221V305.402H760.721V301.41H761.221V297.418H760.721V293.426H761.221V289.434H760.721V285.441H761.221V281.449H760.721V277.457H761.221V273.465H760.721V269.473H761.221V265.48H760.721V261.488H761.221V257.496H760.721V253.504H761.221V249.512H760.721V245.52H761.221V241.527H760.721V237.535H761.221V233.543H760.721V229.551H761.221V225.559H760.721V221.566H761.221V217.574H760.721V213.582H761.221V209.59H760.721V205.598H761.221V201.605H760.721V197.613H761.221V193.621H760.721V189.629H761.221V185.637H760.721V181.645H761.221V177.652H760.721V173.66H761.221V169.668H760.721V165.676H761.221V161.684H760.721V157.691H761.221V153.699H760.721V149.707H761.221V145.715H760.721V141.723H761.221V137.73H760.721V133.738H761.221V129.746H760.721V125.754H761.221V121.762H760.721V117.77H761.221V113.777H760.721V111.781V111.281H761.221H763.239V111.781H767.274V111.281H771.31V111.781H775.345V111.281H779.381V111.781H783.416V111.281H787.451V111.781H791.487V111.281H795.522V111.781H799.558V111.281H803.593V111.781H807.628V111.281H811.664V111.781H815.699V111.281H819.735V111.781H823.77V111.281H827.805V111.781H831.841V111.281H835.876V111.781H839.911V111.281H843.947V111.781H847.982V111.281H849.5V109.785H850V105.793H849.5V101.801H850V97.8086H849.5V93.8164H850V89.8242H849.5V85.832H850V81.8399H849.5V77.8477H850V73.8555H849.5V69.8633H850V65.8711H849.5V61.8789H850V57.8867H849.5V53.8945H850V49.9023H849.5V45.9102H850V41.918H849.5V37.9258H850V33.9336H849.5V29.9414H850V25.9492H849.5V21.957H850V17.9648H849.5V13.9727H850V9.98047H849.5V5.98828H850V1.99609H849.5V0.5H848.023V0H844.071V0.5H840.118V0H836.166V0.5H832.213V0H828.26V0.5H824.308V0H820.355V0.5H816.402V0H812.45V0.5H808.497V0H804.544V0.5H800.592V0H796.639V0.5H792.687V0H788.734V0.5H784.781V0H780.829V0.5H776.876V0H772.923V0.5H768.971V0H765.018V0.5H761.065V0H757.113V0.5H753.16V0H749.208V0.5H745.255V0H741.302V0.5H737.35V0H733.397V0.5H729.444V0H725.492V0.5H721.539V0H717.586V0.5H713.634V0H709.681V0.5H705.729V0H701.776V0.5H697.823V0H693.871V0.5H689.918V0H685.965V0.5H682.013V0H678.06V0.5H674.107V0H670.155V0.5H666.202V0H662.25V0.5H658.297V0H654.344V0.5H650.392V0H646.439V0.5H642.486V0H638.534V0.5H634.581V0H630.628V0.5H626.676V0H622.723V0.5H618.771V0H614.818V0.5H610.865V0H606.913V0.5H602.96V0H599.007V0.5H595.055V0H591.102V0.5H587.149V0H583.197V0.5H579.244V0H575.291V0.5H571.339V0H567.386V0.5H563.434V0H559.481V0.5H555.528V0H551.576V0.5H547.623V0H543.67V0.5H539.718V0H535.765V0.5H534.289V1.9961H533.789V5.98829H534.289V9.98048H533.789V13.9727H534.289V17.9649H533.789V21.957H534.289V25.9492H533.789V29.9414H534.289V33.9336H533.789V37.9258H534.289V41.918H533.789V45.9102H534.289V49.9024H533.789V53.8945H534.289V57.8867H533.789V61.8789H534.289V65.8711H533.789V69.8633H534.289V73.8555H533.789V77.8477H534.289V81.8399H533.789V85.832H534.289V89.8242H533.789V93.8164H534.289V97.8086H533.789V101.801H534.289V105.793H533.789V109.785H534.289V111.281H535.806V111.781Z" stroke="url(#paint0_linear)" stroke-opacity="0.25" stroke-dasharray="4 4"/>
</g>
<defs>
<linearGradient id="paint0_linear" x1="558" y1="190" x2="803" y2="142" gradientUnits="userSpaceOnUse">
<stop stop-color="white"/>
<stop offset="1" stop-color="white" stop-opacity="0"/>
</linearGradient>
</defs>
</svg>
