<svg xmlns="http://www.w3.org/2000/svg" xmlns:xlink="http://www.w3.org/1999/xlink" width="400" zoomAndPan="magnify" viewBox="0 0 300 299.999988" height="400" preserveAspectRatio="xMidYMid meet" version="1.0"><defs><clipPath id="7bcd806609"><path d="M 97.964844 90 L 202.214844 90 L 202.214844 210 L 97.964844 210 Z M 97.964844 90 " clip-rule="nonzero"/></clipPath></defs><path fill="#d9d9d9" d="M 131.449219 154.410156 C 131.238281 154.25 131.003906 154.136719 130.75 154.066406 C 130.492188 154 130.230469 153.984375 129.96875 154.019531 C 129.703125 154.054688 129.457031 154.136719 129.230469 154.269531 C 129 154.40625 128.804688 154.578125 128.640625 154.789062 L 116.4375 170.789062 C 116.164062 171.144531 116.027344 171.550781 116.027344 172 C 116.027344 172.449219 116.164062 172.855469 116.4375 173.210938 L 128.640625 189.210938 C 128.804688 189.421875 129 189.59375 129.230469 189.726562 C 129.457031 189.863281 129.703125 189.945312 129.96875 189.980469 C 130.230469 190.015625 130.492188 190 130.75 189.933594 C 131.003906 189.863281 131.238281 189.75 131.449219 189.589844 C 131.660156 189.429688 131.835938 189.234375 131.96875 189.003906 C 132.101562 188.777344 132.1875 188.53125 132.222656 188.265625 C 132.257812 188.003906 132.242188 187.746094 132.171875 187.488281 C 132.105469 187.230469 131.992188 187 131.832031 186.789062 L 120.558594 172 L 131.832031 157.210938 C 131.992188 157 132.105469 156.769531 132.171875 156.511719 C 132.242188 156.253906 132.257812 155.996094 132.222656 155.734375 C 132.1875 155.46875 132.101562 155.222656 131.96875 154.996094 C 131.835938 154.765625 131.660156 154.570312 131.449219 154.410156 Z M 131.449219 154.410156 " fill-opacity="1" fill-rule="nonzero"/><path fill="#d9d9d9" d="M 163.484375 154.785156 C 163.320312 154.574219 163.125 154.402344 162.894531 154.269531 C 162.664062 154.136719 162.417969 154.050781 162.15625 154.015625 C 161.890625 153.980469 161.632812 154 161.375 154.066406 C 161.117188 154.136719 160.886719 154.25 160.675781 154.410156 C 160.460938 154.574219 160.289062 154.769531 160.15625 154.996094 C 160.023438 155.226562 159.941406 155.472656 159.90625 155.734375 C 159.871094 156 159.886719 156.257812 159.953125 156.515625 C 160.023438 156.769531 160.136719 157.003906 160.300781 157.214844 L 171.613281 172 L 160.300781 186.785156 C 160.136719 186.996094 160.023438 187.230469 159.953125 187.484375 C 159.886719 187.742188 159.871094 188 159.90625 188.265625 C 159.941406 188.527344 160.023438 188.773438 160.15625 189.003906 C 160.289062 189.230469 160.460938 189.425781 160.675781 189.589844 C 160.886719 189.75 161.117188 189.863281 161.375 189.933594 C 161.632812 190 161.890625 190.019531 162.15625 189.984375 C 162.417969 189.949219 162.664062 189.863281 162.894531 189.730469 C 163.125 189.597656 163.320312 189.425781 163.484375 189.214844 L 175.726562 173.214844 C 176 172.855469 176.136719 172.453125 176.136719 172 C 176.136719 171.546875 176 171.144531 175.726562 170.785156 Z M 163.484375 154.785156 " fill-opacity="1" fill-rule="nonzero"/><path fill="#d9d9d9" d="M 150.035156 154.046875 C 149.773438 153.988281 149.511719 153.984375 149.253906 154.03125 C 148.992188 154.078125 148.75 154.171875 148.523438 154.316406 C 148.300781 154.460938 148.113281 154.640625 147.960938 154.855469 C 147.808594 155.074219 147.707031 155.3125 147.648438 155.574219 L 140.636719 187.574219 C 140.570312 187.835938 140.554688 188.101562 140.597656 188.371094 C 140.636719 188.636719 140.730469 188.886719 140.871094 189.117188 C 141.015625 189.347656 141.195312 189.542969 141.417969 189.699219 C 141.640625 189.855469 141.882812 189.964844 142.148438 190.023438 C 142.414062 190.082031 142.679688 190.085938 142.949219 190.035156 C 143.214844 189.984375 143.460938 189.882812 143.6875 189.734375 C 143.914062 189.582031 144.101562 189.394531 144.25 189.167969 C 144.402344 188.941406 144.5 188.695312 144.546875 188.425781 L 151.5625 156.425781 C 151.617188 156.167969 151.625 155.910156 151.578125 155.648438 C 151.53125 155.386719 151.433594 155.144531 151.292969 154.921875 C 151.148438 154.695312 150.96875 154.507812 150.75 154.359375 C 150.53125 154.207031 150.292969 154.101562 150.035156 154.046875 Z M 150.035156 154.046875 " fill-opacity="1" fill-rule="nonzero"/><g clip-path="url(#7bcd806609)"><path fill="#d9d9d9" d="M 200.179688 90 L 108.011719 90 C 107.746094 90 107.492188 90.050781 107.246094 90.152344 C 107 90.253906 106.785156 90.398438 106.597656 90.585938 C 106.410156 90.773438 106.261719 90.988281 106.160156 91.234375 C 106.058594 91.480469 106.007812 91.734375 106.007812 92 L 106.007812 98 L 100 98 C 99.734375 98 99.476562 98.050781 99.230469 98.152344 C 98.988281 98.253906 98.769531 98.398438 98.582031 98.585938 C 98.394531 98.773438 98.25 98.988281 98.148438 99.234375 C 98.046875 99.480469 97.996094 99.734375 97.996094 100 L 97.996094 208 C 97.996094 208.265625 98.046875 208.519531 98.148438 208.765625 C 98.25 209.011719 98.394531 209.226562 98.582031 209.414062 C 98.769531 209.601562 98.984375 209.746094 99.230469 209.847656 C 99.476562 209.949219 99.734375 210 100 210 L 192.164062 210 C 192.429688 210 192.6875 209.949219 192.929688 209.847656 C 193.175781 209.746094 193.394531 209.601562 193.582031 209.414062 C 193.769531 209.226562 193.914062 209.011719 194.015625 208.765625 C 194.117188 208.519531 194.167969 208.265625 194.167969 208 L 194.167969 202 L 200.179688 202 C 200.445312 202 200.699219 201.949219 200.945312 201.847656 C 201.191406 201.746094 201.40625 201.601562 201.59375 201.414062 C 201.785156 201.226562 201.929688 201.011719 202.03125 200.765625 C 202.132812 200.519531 202.183594 200.265625 202.183594 200 L 202.183594 92 C 202.183594 91.734375 202.132812 91.480469 202.03125 91.234375 C 201.929688 90.988281 201.785156 90.773438 201.59375 90.585938 C 201.40625 90.398438 201.191406 90.253906 200.945312 90.152344 C 200.699219 90.050781 200.445312 90 200.179688 90 Z M 108.011719 108 C 108.011719 107.734375 108.0625 107.480469 108.164062 107.234375 C 108.265625 106.988281 108.410156 106.773438 108.601562 106.585938 C 108.789062 106.398438 109.003906 106.253906 109.25 106.152344 C 109.496094 106.050781 109.75 106 110.015625 106 C 110.28125 106 110.539062 106.050781 110.785156 106.152344 C 111.027344 106.253906 111.246094 106.398438 111.433594 106.585938 C 111.621094 106.773438 111.765625 106.988281 111.867188 107.234375 C 111.96875 107.480469 112.019531 107.734375 112.019531 108 L 112.019531 116 L 120.035156 116 L 120.035156 108 C 120.035156 107.734375 120.085938 107.480469 120.1875 107.234375 C 120.289062 106.988281 120.433594 106.773438 120.621094 106.585938 C 120.808594 106.398438 121.027344 106.253906 121.269531 106.152344 C 121.515625 106.050781 121.773438 106 122.039062 106 C 122.304688 106 122.558594 106.050781 122.804688 106.152344 C 123.050781 106.253906 123.265625 106.398438 123.453125 106.585938 C 123.644531 106.773438 123.789062 106.988281 123.890625 107.234375 C 123.992188 107.480469 124.042969 107.734375 124.042969 108 L 124.042969 128 C 124.042969 128.265625 123.992188 128.519531 123.890625 128.765625 C 123.789062 129.011719 123.644531 129.226562 123.453125 129.414062 C 123.265625 129.601562 123.050781 129.746094 122.804688 129.847656 C 122.558594 129.949219 122.304688 130 122.039062 130 C 121.773438 130 121.515625 129.949219 121.269531 129.847656 C 121.027344 129.746094 120.808594 129.601562 120.621094 129.414062 C 120.433594 129.226562 120.289062 129.011719 120.1875 128.765625 C 120.085938 128.519531 120.035156 128.265625 120.035156 128 L 120.035156 120 L 112.019531 120 L 112.019531 128 C 112.019531 128.265625 111.96875 128.519531 111.867188 128.765625 C 111.765625 129.011719 111.621094 129.226562 111.433594 129.414062 C 111.246094 129.601562 111.027344 129.746094 110.785156 129.847656 C 110.539062 129.949219 110.28125 130 110.015625 130 C 109.75 130 109.496094 129.949219 109.25 129.847656 C 109.003906 129.746094 108.789062 129.601562 108.601562 129.414062 C 108.410156 129.226562 108.265625 129.011719 108.164062 128.765625 C 108.0625 128.519531 108.011719 128.265625 108.011719 128 Z M 190.160156 206 L 102.003906 206 L 102.003906 138 L 190.160156 138 Z M 130.050781 110 C 129.785156 110 129.53125 109.949219 129.285156 109.847656 C 129.039062 109.746094 128.824219 109.601562 128.636719 109.414062 C 128.449219 109.226562 128.304688 109.011719 128.203125 108.765625 C 128.101562 108.519531 128.050781 108.265625 128.050781 108 C 128.050781 107.734375 128.101562 107.480469 128.203125 107.234375 C 128.304688 106.988281 128.449219 106.773438 128.636719 106.585938 C 128.824219 106.398438 129.039062 106.253906 129.285156 106.152344 C 129.53125 106.050781 129.785156 106 130.050781 106 L 142.074219 106 C 142.339844 106 142.59375 106.050781 142.839844 106.152344 C 143.085938 106.253906 143.304688 106.398438 143.492188 106.585938 C 143.679688 106.773438 143.824219 106.988281 143.925781 107.234375 C 144.027344 107.480469 144.078125 107.734375 144.078125 108 C 144.078125 108.265625 144.027344 108.519531 143.925781 108.765625 C 143.824219 109.011719 143.679688 109.226562 143.492188 109.414062 C 143.304688 109.601562 143.085938 109.746094 142.839844 109.847656 C 142.59375 109.949219 142.339844 110 142.074219 110 L 138.066406 110 L 138.066406 128 C 138.066406 128.265625 138.015625 128.519531 137.914062 128.765625 C 137.8125 129.011719 137.667969 129.226562 137.480469 129.414062 C 137.292969 129.601562 137.074219 129.746094 136.832031 129.847656 C 136.585938 129.949219 136.328125 130 136.0625 130 C 135.796875 130 135.542969 129.949219 135.296875 129.847656 C 135.050781 129.746094 134.835938 129.601562 134.648438 129.414062 C 134.457031 129.226562 134.3125 129.011719 134.210938 128.765625 C 134.109375 128.519531 134.058594 128.265625 134.058594 128 L 134.058594 110 Z M 157.824219 119.019531 C 157.101562 120.25 155.097656 120.25 154.375 119.019531 L 152.09375 115.21875 L 152.09375 128 C 152.09375 128.265625 152.042969 128.519531 151.941406 128.765625 C 151.839844 129.011719 151.691406 129.226562 151.503906 129.414062 C 151.316406 129.601562 151.101562 129.746094 150.855469 129.847656 C 150.609375 129.949219 150.355469 130 150.089844 130 C 149.824219 130 149.566406 129.949219 149.320312 129.847656 C 149.078125 129.746094 148.859375 129.601562 148.671875 129.414062 C 148.484375 129.226562 148.339844 129.011719 148.238281 128.765625 C 148.136719 128.519531 148.085938 128.265625 148.085938 128 L 148.085938 108 C 148.085938 107.550781 148.222656 107.144531 148.496094 106.789062 C 148.769531 106.429688 149.125 106.191406 149.558594 106.070312 C 149.992188 105.953125 150.421875 105.976562 150.839844 106.144531 C 151.257812 106.316406 151.582031 106.59375 151.8125 106.980469 L 156.097656 114.121094 L 160.386719 106.980469 C 160.617188 106.59375 160.941406 106.316406 161.359375 106.144531 C 161.777344 105.976562 162.203125 105.953125 162.640625 106.070312 C 163.074219 106.191406 163.429688 106.429688 163.703125 106.789062 C 163.976562 107.144531 164.113281 107.550781 164.113281 108 L 164.113281 128 C 164.113281 128.265625 164.0625 128.519531 163.960938 128.765625 C 163.859375 129.011719 163.714844 129.226562 163.527344 129.414062 C 163.339844 129.601562 163.121094 129.746094 162.878906 129.847656 C 162.632812 129.949219 162.375 130 162.109375 130 C 161.84375 130 161.589844 129.949219 161.34375 129.847656 C 161.097656 129.746094 160.882812 129.601562 160.695312 129.414062 C 160.503906 129.226562 160.359375 129.011719 160.257812 128.765625 C 160.15625 128.519531 160.105469 128.265625 160.105469 128 L 160.105469 115.21875 Z M 174.132812 116 L 174.132812 104.820312 L 187.335938 118 L 176.136719 118 C 175.871094 118 175.613281 117.949219 175.367188 117.847656 C 175.125 117.746094 174.90625 117.601562 174.71875 117.414062 C 174.53125 117.226562 174.386719 117.011719 174.285156 116.765625 C 174.183594 116.519531 174.132812 116.265625 174.132812 116 Z M 198.175781 198 L 194.167969 198 L 194.167969 120 C 194.164062 119.449219 193.96875 118.976562 193.585938 118.578125 L 173.550781 98.578125 C 173.152344 98.199219 172.679688 98.003906 172.128906 98 L 110.015625 98 L 110.015625 94 L 198.175781 94 Z M 198.175781 198 " fill-opacity="1" fill-rule="nonzero"/></g></svg>