<svg xmlns="http://www.w3.org/2000/svg" xmlns:xlink="http://www.w3.org/1999/xlink" width="400" zoomAndPan="magnify" viewBox="0 0 300 299.999988" height="400" preserveAspectRatio="xMidYMid meet" version="1.0"><defs><clipPath id="5f1e160c24"><path d="M 97.964844 90 L 202.214844 90 L 202.214844 210 L 97.964844 210 Z M 97.964844 90 " clip-rule="nonzero"/></clipPath></defs><path fill="#d9d9d9" d="M 172.128906 170 C 171.863281 170 171.605469 169.972656 171.347656 169.921875 C 171.089844 169.871094 170.835938 169.796875 170.59375 169.695312 C 170.351562 169.59375 170.121094 169.472656 169.902344 169.324219 C 169.683594 169.179688 169.480469 169.015625 169.292969 168.828125 C 169.109375 168.644531 168.941406 168.441406 168.796875 168.222656 C 168.648438 168.003906 168.527344 167.773438 168.425781 167.53125 C 168.324219 167.289062 168.25 167.039062 168.199219 166.78125 C 168.148438 166.523438 168.121094 166.261719 168.121094 166 L 168.121094 162 C 168.121094 161.476562 168.070312 160.953125 167.96875 160.4375 C 167.863281 159.925781 167.710938 159.421875 167.511719 158.9375 C 167.308594 158.453125 167.0625 157.992188 166.769531 157.554688 C 166.476562 157.117188 166.144531 156.714844 165.773438 156.34375 C 165.402344 155.972656 164.996094 155.640625 164.558594 155.347656 C 164.121094 155.054688 163.660156 154.808594 163.171875 154.609375 C 162.6875 154.40625 162.1875 154.257812 161.671875 154.152344 C 161.152344 154.050781 160.632812 154 160.105469 154 C 159.839844 154 159.585938 154.050781 159.339844 154.152344 C 159.09375 154.253906 158.878906 154.398438 158.691406 154.585938 C 158.503906 154.773438 158.355469 154.988281 158.253906 155.234375 C 158.152344 155.480469 158.101562 155.734375 158.101562 156 C 158.101562 156.265625 158.152344 156.519531 158.253906 156.765625 C 158.355469 157.011719 158.503906 157.226562 158.691406 157.414062 C 158.878906 157.601562 159.09375 157.746094 159.339844 157.847656 C 159.585938 157.949219 159.839844 158 160.105469 158 C 160.371094 158 160.628906 158.027344 160.886719 158.078125 C 161.144531 158.128906 161.398438 158.203125 161.640625 158.304688 C 161.882812 158.40625 162.113281 158.527344 162.332031 158.675781 C 162.550781 158.820312 162.753906 158.984375 162.941406 159.171875 C 163.125 159.355469 163.292969 159.558594 163.4375 159.777344 C 163.585938 159.996094 163.707031 160.226562 163.808594 160.46875 C 163.910156 160.710938 163.984375 160.960938 164.035156 161.21875 C 164.089844 161.476562 164.113281 161.738281 164.113281 162 L 164.113281 166 C 164.113281 167.148438 164.351562 168.246094 164.824219 169.292969 C 165.300781 170.339844 165.96875 171.242188 166.832031 172 C 165.96875 172.757812 165.300781 173.660156 164.824219 174.707031 C 164.351562 175.753906 164.113281 176.851562 164.113281 178 L 164.113281 182 C 164.113281 182.261719 164.089844 182.523438 164.035156 182.78125 C 163.984375 183.039062 163.910156 183.289062 163.808594 183.53125 C 163.707031 183.773438 163.585938 184.003906 163.4375 184.222656 C 163.292969 184.441406 163.125 184.644531 162.941406 184.828125 C 162.753906 185.015625 162.550781 185.179688 162.332031 185.324219 C 162.113281 185.472656 161.882812 185.59375 161.640625 185.695312 C 161.398438 185.796875 161.144531 185.871094 160.886719 185.921875 C 160.628906 185.972656 160.371094 186 160.105469 186 C 159.839844 186 159.585938 186.050781 159.339844 186.152344 C 159.09375 186.253906 158.878906 186.398438 158.691406 186.585938 C 158.503906 186.773438 158.355469 186.988281 158.253906 187.234375 C 158.152344 187.480469 158.101562 187.734375 158.101562 188 C 158.101562 188.265625 158.152344 188.519531 158.253906 188.765625 C 158.355469 189.011719 158.503906 189.226562 158.691406 189.414062 C 158.878906 189.601562 159.09375 189.746094 159.339844 189.847656 C 159.585938 189.949219 159.839844 190 160.105469 190 C 160.632812 190 161.152344 189.949219 161.671875 189.847656 C 162.1875 189.742188 162.6875 189.59375 163.171875 189.390625 C 163.660156 189.191406 164.121094 188.945312 164.558594 188.652344 C 164.996094 188.359375 165.402344 188.027344 165.773438 187.65625 C 166.144531 187.285156 166.476562 186.882812 166.769531 186.445312 C 167.0625 186.007812 167.308594 185.546875 167.511719 185.0625 C 167.710938 184.574219 167.863281 184.074219 167.96875 183.5625 C 168.070312 183.046875 168.121094 182.523438 168.121094 182 L 168.121094 178 C 168.121094 177.738281 168.148438 177.476562 168.199219 177.21875 C 168.25 176.960938 168.324219 176.710938 168.425781 176.46875 C 168.527344 176.226562 168.648438 175.996094 168.796875 175.777344 C 168.941406 175.558594 169.109375 175.355469 169.292969 175.171875 C 169.480469 174.984375 169.683594 174.820312 169.902344 174.675781 C 170.121094 174.527344 170.351562 174.40625 170.59375 174.304688 C 170.835938 174.203125 171.089844 174.128906 171.347656 174.078125 C 171.605469 174.027344 171.863281 174 172.128906 174 C 172.394531 174 172.648438 173.949219 172.894531 173.847656 C 173.140625 173.746094 173.355469 173.601562 173.546875 173.414062 C 173.734375 173.226562 173.878906 173.011719 173.980469 172.765625 C 174.082031 172.519531 174.132812 172.265625 174.132812 172 C 174.132812 171.734375 174.082031 171.480469 173.980469 171.234375 C 173.878906 170.988281 173.734375 170.773438 173.546875 170.585938 C 173.355469 170.398438 173.140625 170.253906 172.894531 170.152344 C 172.648438 170.050781 172.394531 170 172.128906 170 Z M 172.128906 170 " fill-opacity="1" fill-rule="nonzero"/><path fill="#d9d9d9" d="M 128.050781 162 C 128.050781 161.738281 128.074219 161.476562 128.125 161.21875 C 128.175781 160.960938 128.253906 160.710938 128.355469 160.46875 C 128.453125 160.226562 128.578125 159.996094 128.722656 159.777344 C 128.871094 159.558594 129.035156 159.355469 129.222656 159.171875 C 129.410156 158.984375 129.609375 158.820312 129.828125 158.675781 C 130.046875 158.527344 130.28125 158.40625 130.523438 158.304688 C 130.765625 158.203125 131.015625 158.128906 131.273438 158.078125 C 131.53125 158.027344 131.792969 158 132.054688 158 C 132.320312 158 132.578125 157.949219 132.824219 157.847656 C 133.070312 157.746094 133.285156 157.601562 133.472656 157.414062 C 133.660156 157.226562 133.804688 157.011719 133.90625 156.765625 C 134.007812 156.519531 134.058594 156.265625 134.058594 156 C 134.058594 155.734375 134.007812 155.480469 133.90625 155.234375 C 133.804688 154.988281 133.660156 154.773438 133.472656 154.585938 C 133.285156 154.398438 133.070312 154.253906 132.824219 154.152344 C 132.578125 154.050781 132.320312 154 132.054688 154 C 131.53125 154 131.007812 154.050781 130.492188 154.152344 C 129.976562 154.257812 129.476562 154.40625 128.988281 154.609375 C 128.503906 154.808594 128.042969 155.054688 127.605469 155.347656 C 127.167969 155.640625 126.761719 155.972656 126.390625 156.34375 C 126.015625 156.714844 125.683594 157.117188 125.390625 157.554688 C 125.101562 157.992188 124.851562 158.453125 124.652344 158.9375 C 124.449219 159.425781 124.296875 159.925781 124.195312 160.4375 C 124.09375 160.953125 124.042969 161.476562 124.042969 162 L 124.042969 166 C 124.042969 166.261719 124.015625 166.523438 123.964844 166.78125 C 123.914062 167.039062 123.835938 167.289062 123.738281 167.53125 C 123.636719 167.773438 123.511719 168.003906 123.367188 168.222656 C 123.21875 168.441406 123.054688 168.644531 122.867188 168.828125 C 122.683594 169.015625 122.480469 169.179688 122.261719 169.324219 C 122.042969 169.472656 121.8125 169.59375 121.566406 169.695312 C 121.324219 169.796875 121.074219 169.871094 120.816406 169.921875 C 120.558594 169.972656 120.296875 170 120.035156 170 C 119.769531 170 119.511719 170.050781 119.269531 170.152344 C 119.023438 170.253906 118.804688 170.398438 118.617188 170.585938 C 118.429688 170.773438 118.285156 170.988281 118.183594 171.234375 C 118.082031 171.480469 118.03125 171.734375 118.03125 172 C 118.03125 172.265625 118.082031 172.519531 118.183594 172.765625 C 118.285156 173.011719 118.429688 173.226562 118.617188 173.414062 C 118.804688 173.601562 119.023438 173.746094 119.269531 173.847656 C 119.511719 173.949219 119.769531 174 120.035156 174 C 120.296875 174 120.558594 174.027344 120.816406 174.078125 C 121.074219 174.128906 121.324219 174.203125 121.566406 174.304688 C 121.8125 174.40625 122.042969 174.527344 122.261719 174.675781 C 122.480469 174.820312 122.683594 174.984375 122.867188 175.171875 C 123.054688 175.355469 123.21875 175.558594 123.367188 175.777344 C 123.511719 175.996094 123.636719 176.226562 123.738281 176.46875 C 123.835938 176.710938 123.914062 176.960938 123.964844 177.21875 C 124.015625 177.476562 124.042969 177.738281 124.042969 178 L 124.042969 182 C 124.042969 182.523438 124.09375 183.046875 124.195312 183.5625 C 124.296875 184.074219 124.449219 184.574219 124.652344 185.0625 C 124.851562 185.546875 125.101562 186.007812 125.390625 186.445312 C 125.683594 186.882812 126.015625 187.285156 126.390625 187.65625 C 126.761719 188.027344 127.167969 188.359375 127.605469 188.652344 C 128.042969 188.945312 128.503906 189.191406 128.988281 189.390625 C 129.476562 189.59375 129.976562 189.742188 130.492188 189.847656 C 131.007812 189.949219 131.53125 190 132.054688 190 C 132.320312 190 132.578125 189.949219 132.824219 189.847656 C 133.070312 189.746094 133.285156 189.601562 133.472656 189.414062 C 133.660156 189.226562 133.804688 189.011719 133.90625 188.765625 C 134.007812 188.519531 134.058594 188.265625 134.058594 188 C 134.058594 187.734375 134.007812 187.480469 133.90625 187.234375 C 133.804688 186.988281 133.660156 186.773438 133.472656 186.585938 C 133.285156 186.398438 133.070312 186.253906 132.824219 186.152344 C 132.578125 186.050781 132.320312 186 132.054688 186 C 131.792969 186 131.53125 185.972656 131.273438 185.921875 C 131.015625 185.871094 130.765625 185.796875 130.523438 185.695312 C 130.28125 185.59375 130.046875 185.472656 129.828125 185.324219 C 129.609375 185.179688 129.410156 185.015625 129.222656 184.828125 C 129.035156 184.644531 128.871094 184.441406 128.722656 184.222656 C 128.578125 184.003906 128.453125 183.773438 128.355469 183.53125 C 128.253906 183.289062 128.175781 183.039062 128.125 182.78125 C 128.074219 182.523438 128.050781 182.261719 128.050781 182 L 128.050781 178 C 128.050781 176.851562 127.8125 175.753906 127.339844 174.707031 C 126.863281 173.660156 126.195312 172.757812 125.328125 172 C 126.195312 171.242188 126.863281 170.339844 127.339844 169.292969 C 127.8125 168.246094 128.050781 167.148438 128.050781 166 Z M 128.050781 162 " fill-opacity="1" fill-rule="nonzero"/><path fill="#d9d9d9" d="M 148.085938 166 C 148.085938 166.265625 148.035156 166.519531 147.933594 166.765625 C 147.832031 167.011719 147.6875 167.226562 147.5 167.414062 C 147.308594 167.601562 147.09375 167.746094 146.847656 167.847656 C 146.601562 167.949219 146.347656 168 146.082031 168 C 145.816406 168 145.558594 167.949219 145.316406 167.847656 C 145.070312 167.746094 144.851562 167.601562 144.664062 167.414062 C 144.476562 167.226562 144.332031 167.011719 144.230469 166.765625 C 144.128906 166.519531 144.078125 166.265625 144.078125 166 C 144.078125 165.734375 144.128906 165.480469 144.230469 165.234375 C 144.332031 164.988281 144.476562 164.773438 144.664062 164.585938 C 144.851562 164.398438 145.070312 164.253906 145.316406 164.152344 C 145.558594 164.050781 145.816406 164 146.082031 164 C 146.347656 164 146.601562 164.050781 146.847656 164.152344 C 147.09375 164.253906 147.308594 164.398438 147.5 164.585938 C 147.6875 164.773438 147.832031 164.988281 147.933594 165.234375 C 148.035156 165.480469 148.085938 165.734375 148.085938 166 Z M 148.085938 166 " fill-opacity="1" fill-rule="nonzero"/><path fill="#d9d9d9" d="M 146.082031 176 C 145.816406 176 145.558594 176.050781 145.316406 176.152344 C 145.070312 176.253906 144.851562 176.398438 144.664062 176.585938 C 144.476562 176.773438 144.332031 176.988281 144.230469 177.234375 C 144.128906 177.480469 144.078125 177.734375 144.078125 178 C 144.078125 178.265625 144.027344 178.519531 143.925781 178.765625 C 143.824219 179.011719 143.679688 179.226562 143.492188 179.414062 C 143.304688 179.601562 143.085938 179.746094 142.839844 179.847656 C 142.59375 179.949219 142.339844 180 142.074219 180 C 141.808594 180 141.554688 180.050781 141.308594 180.152344 C 141.0625 180.253906 140.84375 180.398438 140.65625 180.585938 C 140.46875 180.773438 140.324219 180.988281 140.222656 181.234375 C 140.121094 181.480469 140.070312 181.734375 140.070312 182 C 140.070312 182.265625 140.121094 182.519531 140.222656 182.765625 C 140.324219 183.011719 140.46875 183.226562 140.65625 183.414062 C 140.84375 183.601562 141.0625 183.746094 141.308594 183.847656 C 141.554688 183.949219 141.808594 184 142.074219 184 C 142.46875 184 142.859375 183.960938 143.246094 183.882812 C 143.632812 183.808594 144.011719 183.695312 144.375 183.542969 C 144.738281 183.390625 145.085938 183.207031 145.414062 182.988281 C 145.742188 182.769531 146.046875 182.519531 146.324219 182.242188 C 146.605469 181.964844 146.851562 181.660156 147.070312 181.332031 C 147.292969 181.003906 147.476562 180.660156 147.628906 180.296875 C 147.777344 179.933594 147.890625 179.558594 147.96875 179.171875 C 148.046875 178.785156 148.085938 178.394531 148.085938 178 C 148.085938 177.734375 148.035156 177.480469 147.933594 177.234375 C 147.832031 176.988281 147.6875 176.773438 147.5 176.585938 C 147.308594 176.398438 147.09375 176.253906 146.847656 176.152344 C 146.601562 176.050781 146.347656 176 146.082031 176 Z M 146.082031 176 " fill-opacity="1" fill-rule="nonzero"/><g clip-path="url(#5f1e160c24)"><path fill="#d9d9d9" d="M 200.179688 90 L 108.011719 90 C 107.746094 90 107.492188 90.050781 107.246094 90.152344 C 107 90.253906 106.785156 90.398438 106.597656 90.585938 C 106.410156 90.773438 106.261719 90.988281 106.160156 91.234375 C 106.058594 91.480469 106.007812 91.734375 106.007812 92 L 106.007812 98 L 100 98 C 99.734375 98 99.476562 98.050781 99.230469 98.152344 C 98.988281 98.253906 98.769531 98.398438 98.582031 98.585938 C 98.394531 98.773438 98.25 98.988281 98.148438 99.234375 C 98.046875 99.480469 97.996094 99.734375 97.996094 100 L 97.996094 208 C 97.996094 208.265625 98.046875 208.519531 98.148438 208.765625 C 98.25 209.011719 98.394531 209.226562 98.582031 209.414062 C 98.769531 209.601562 98.984375 209.746094 99.230469 209.847656 C 99.476562 209.949219 99.734375 210 100 210 L 192.164062 210 C 192.429688 210 192.6875 209.949219 192.929688 209.847656 C 193.175781 209.746094 193.394531 209.601562 193.582031 209.414062 C 193.769531 209.226562 193.914062 209.011719 194.015625 208.765625 C 194.117188 208.519531 194.167969 208.265625 194.167969 208 L 194.167969 202 L 200.179688 202 C 200.445312 202 200.699219 201.949219 200.945312 201.847656 C 201.191406 201.746094 201.40625 201.601562 201.59375 201.414062 C 201.785156 201.226562 201.929688 201.011719 202.03125 200.765625 C 202.132812 200.519531 202.183594 200.265625 202.183594 200 L 202.183594 92 C 202.183594 91.734375 202.132812 91.480469 202.03125 91.234375 C 201.929688 90.988281 201.785156 90.773438 201.59375 90.585938 C 201.40625 90.398438 201.191406 90.253906 200.945312 90.152344 C 200.699219 90.050781 200.445312 90 200.179688 90 Z M 190.160156 206 L 102.003906 206 L 102.003906 138 L 190.160156 138 Z M 120.035156 122 C 120.035156 121.734375 120.085938 121.480469 120.1875 121.234375 C 120.289062 120.988281 120.433594 120.773438 120.621094 120.585938 C 120.808594 120.398438 121.027344 120.253906 121.269531 120.152344 C 121.515625 120.050781 121.773438 120 122.039062 120 C 122.304688 120 122.558594 120.050781 122.804688 120.152344 C 123.050781 120.253906 123.265625 120.398438 123.453125 120.585938 C 123.644531 120.773438 123.789062 120.988281 123.890625 121.234375 C 123.992188 121.480469 124.042969 121.734375 124.042969 122 C 124.042969 122.261719 124.066406 122.523438 124.117188 122.78125 C 124.171875 123.039062 124.246094 123.289062 124.347656 123.53125 C 124.449219 123.773438 124.570312 124.003906 124.71875 124.222656 C 124.863281 124.441406 125.03125 124.644531 125.214844 124.828125 C 125.402344 125.015625 125.605469 125.179688 125.824219 125.324219 C 126.042969 125.472656 126.273438 125.59375 126.515625 125.695312 C 126.757812 125.796875 127.007812 125.871094 127.265625 125.921875 C 127.523438 125.972656 127.785156 126 128.050781 126 C 128.3125 126 128.574219 125.972656 128.832031 125.921875 C 129.089844 125.871094 129.339844 125.796875 129.582031 125.695312 C 129.824219 125.59375 130.054688 125.472656 130.273438 125.324219 C 130.492188 125.179688 130.695312 125.015625 130.882812 124.828125 C 131.070312 124.644531 131.234375 124.441406 131.382812 124.222656 C 131.527344 124.003906 131.652344 123.773438 131.75 123.53125 C 131.851562 123.289062 131.929688 123.039062 131.980469 122.78125 C 132.03125 122.523438 132.054688 122.261719 132.054688 122 L 132.054688 108 C 132.054688 107.734375 132.105469 107.480469 132.207031 107.234375 C 132.308594 106.988281 132.457031 106.773438 132.644531 106.585938 C 132.832031 106.398438 133.046875 106.253906 133.292969 106.152344 C 133.539062 106.050781 133.792969 106 134.058594 106 C 134.324219 106 134.582031 106.050781 134.828125 106.152344 C 135.070312 106.253906 135.289062 106.398438 135.476562 106.585938 C 135.664062 106.773438 135.808594 106.988281 135.910156 107.234375 C 136.011719 107.480469 136.0625 107.734375 136.0625 108 L 136.0625 122 C 136.0625 122.523438 136.011719 123.046875 135.910156 123.5625 C 135.808594 124.074219 135.65625 124.574219 135.453125 125.0625 C 135.253906 125.546875 135.003906 126.007812 134.710938 126.445312 C 134.421875 126.882812 134.089844 127.285156 133.714844 127.65625 C 133.34375 128.027344 132.9375 128.359375 132.5 128.652344 C 132.0625 128.945312 131.601562 129.191406 131.117188 129.390625 C 130.628906 129.59375 130.128906 129.742188 129.613281 129.847656 C 129.097656 129.949219 128.574219 130 128.050781 130 C 127.523438 130 127 129.949219 126.484375 129.847656 C 125.96875 129.742188 125.46875 129.59375 124.980469 129.390625 C 124.496094 129.191406 124.035156 128.945312 123.597656 128.652344 C 123.160156 128.359375 122.753906 128.027344 122.382812 127.65625 C 122.011719 127.285156 121.675781 126.882812 121.386719 126.445312 C 121.09375 126.007812 120.847656 125.546875 120.644531 125.0625 C 120.441406 124.574219 120.292969 124.074219 120.1875 123.5625 C 120.085938 123.046875 120.035156 122.523438 120.035156 122 Z M 149.085938 120 L 147.082031 120 C 146.621094 120 146.167969 119.957031 145.714844 119.867188 C 145.261719 119.777344 144.824219 119.644531 144.398438 119.46875 C 143.972656 119.292969 143.570312 119.074219 143.1875 118.820312 C 142.804688 118.566406 142.449219 118.273438 142.125 117.949219 C 141.800781 117.625 141.507812 117.269531 141.253906 116.890625 C 140.996094 116.507812 140.78125 116.101562 140.605469 115.679688 C 140.429688 115.253906 140.296875 114.816406 140.207031 114.367188 C 140.117188 113.914062 140.070312 113.460938 140.070312 113 C 140.070312 112.539062 140.117188 112.085938 140.207031 111.632812 C 140.296875 111.183594 140.429688 110.746094 140.605469 110.320312 C 140.78125 109.898438 140.996094 109.492188 141.253906 109.109375 C 141.507812 108.730469 141.800781 108.375 142.125 108.050781 C 142.449219 107.726562 142.804688 107.433594 143.1875 107.179688 C 143.570312 106.925781 143.972656 106.707031 144.398438 106.53125 C 144.824219 106.355469 145.261719 106.222656 145.714844 106.132812 C 146.167969 106.042969 146.621094 106 147.082031 106 L 150.089844 106 C 150.484375 106 150.875 106.039062 151.261719 106.117188 C 151.648438 106.195312 152.023438 106.308594 152.386719 106.460938 C 152.75 106.613281 153.097656 106.796875 153.425781 107.015625 C 153.75 107.234375 154.054688 107.484375 154.332031 107.761719 C 154.613281 108.039062 154.863281 108.34375 155.082031 108.671875 C 155.300781 108.996094 155.484375 109.34375 155.636719 109.707031 C 155.789062 110.070312 155.902344 110.445312 155.980469 110.832031 C 156.058594 111.214844 156.097656 111.605469 156.097656 112 C 156.097656 112.265625 156.046875 112.519531 155.945312 112.765625 C 155.84375 113.011719 155.699219 113.226562 155.511719 113.414062 C 155.324219 113.601562 155.109375 113.746094 154.863281 113.847656 C 154.617188 113.949219 154.363281 114 154.097656 114 C 153.832031 114 153.574219 113.949219 153.328125 113.847656 C 153.082031 113.746094 152.867188 113.601562 152.679688 113.414062 C 152.492188 113.226562 152.347656 113.011719 152.246094 112.765625 C 152.144531 112.519531 152.09375 112.265625 152.09375 112 C 152.09375 111.734375 152.042969 111.480469 151.941406 111.234375 C 151.839844 110.988281 151.691406 110.773438 151.503906 110.585938 C 151.316406 110.398438 151.101562 110.253906 150.855469 110.152344 C 150.609375 110.050781 150.355469 110 150.089844 110 L 147.082031 110 C 146.683594 110 146.300781 110.074219 145.933594 110.226562 C 145.566406 110.378906 145.238281 110.597656 144.957031 110.878906 C 144.675781 111.160156 144.460938 111.484375 144.304688 111.851562 C 144.152344 112.21875 144.078125 112.601562 144.078125 113 C 144.078125 113.398438 144.152344 113.78125 144.304688 114.148438 C 144.460938 114.515625 144.675781 114.839844 144.957031 115.121094 C 145.238281 115.402344 145.566406 115.621094 145.933594 115.773438 C 146.300781 115.925781 146.683594 116 147.082031 116 L 149.085938 116 C 149.546875 116 150.003906 116.042969 150.453125 116.132812 C 150.90625 116.222656 151.34375 116.355469 151.769531 116.53125 C 152.195312 116.707031 152.601562 116.925781 152.984375 117.179688 C 153.367188 117.433594 153.71875 117.726562 154.046875 118.050781 C 154.371094 118.375 154.660156 118.730469 154.917969 119.109375 C 155.171875 119.492188 155.390625 119.898438 155.566406 120.320312 C 155.742188 120.746094 155.875 121.183594 155.964844 121.632812 C 156.054688 122.085938 156.097656 122.539062 156.097656 123 C 156.097656 123.460938 156.054688 123.914062 155.964844 124.367188 C 155.875 124.816406 155.742188 125.253906 155.566406 125.679688 C 155.390625 126.101562 155.171875 126.507812 154.917969 126.890625 C 154.660156 127.269531 154.371094 127.625 154.046875 127.949219 C 153.71875 128.273438 153.367188 128.566406 152.984375 128.820312 C 152.601562 129.074219 152.195312 129.292969 151.769531 129.46875 C 151.34375 129.644531 150.90625 129.777344 150.453125 129.867188 C 150.003906 129.957031 149.546875 130 149.085938 130 L 146.082031 130 C 145.6875 130 145.296875 129.960938 144.910156 129.882812 C 144.523438 129.804688 144.148438 129.691406 143.785156 129.539062 C 143.417969 129.386719 143.074219 129.203125 142.746094 128.984375 C 142.417969 128.765625 142.113281 128.515625 141.835938 128.238281 C 141.558594 127.960938 141.308594 127.65625 141.089844 127.328125 C 140.871094 127.003906 140.683594 126.65625 140.53125 126.292969 C 140.382812 125.929688 140.265625 125.554688 140.1875 125.167969 C 140.109375 124.785156 140.070312 124.394531 140.070312 124 C 140.070312 123.734375 140.121094 123.480469 140.222656 123.234375 C 140.324219 122.988281 140.46875 122.773438 140.65625 122.585938 C 140.84375 122.398438 141.0625 122.253906 141.308594 122.152344 C 141.554688 122.050781 141.808594 122 142.074219 122 C 142.339844 122 142.59375 122.050781 142.839844 122.152344 C 143.085938 122.253906 143.304688 122.398438 143.492188 122.585938 C 143.679688 122.773438 143.824219 122.988281 143.925781 123.234375 C 144.027344 123.480469 144.078125 123.734375 144.078125 124 C 144.078125 124.265625 144.128906 124.519531 144.230469 124.765625 C 144.332031 125.011719 144.476562 125.226562 144.664062 125.414062 C 144.851562 125.601562 145.070312 125.746094 145.316406 125.847656 C 145.558594 125.949219 145.816406 126 146.082031 126 L 149.085938 126 C 149.484375 126 149.867188 125.925781 150.238281 125.773438 C 150.605469 125.621094 150.929688 125.402344 151.210938 125.121094 C 151.492188 124.839844 151.710938 124.515625 151.863281 124.148438 C 152.015625 123.78125 152.09375 123.398438 152.09375 123 C 152.09375 122.601562 152.015625 122.21875 151.863281 121.851562 C 151.710938 121.484375 151.492188 121.160156 151.210938 120.878906 C 150.929688 120.597656 150.605469 120.378906 150.238281 120.226562 C 149.867188 120.074219 149.484375 120 149.085938 120 Z M 174.132812 116 L 174.132812 104.820312 L 187.335938 118 L 176.136719 118 C 175.871094 118 175.613281 117.949219 175.367188 117.847656 C 175.125 117.746094 174.90625 117.601562 174.71875 117.414062 C 174.53125 117.226562 174.386719 117.011719 174.285156 116.765625 C 174.183594 116.519531 174.132812 116.265625 174.132812 116 Z M 198.175781 198 L 194.167969 198 L 194.167969 120 C 194.164062 119.449219 193.96875 118.976562 193.585938 118.578125 L 173.550781 98.578125 C 173.152344 98.199219 172.679688 98.003906 172.128906 98 L 110.015625 98 L 110.015625 94 L 198.175781 94 Z M 198.175781 198 " fill-opacity="1" fill-rule="nonzero"/></g></svg>