<svg xmlns="http://www.w3.org/2000/svg" xmlns:xlink="http://www.w3.org/1999/xlink" width="400" zoomAndPan="magnify" viewBox="0 0 300 299.999988" height="400" preserveAspectRatio="xMidYMid meet" version="1.0"><defs><clipPath id="b1ec12e211"><path d="M 97.050781 102 L 195 102 L 195 200 L 97.050781 200 Z M 97.050781 102 " clip-rule="nonzero"/></clipPath></defs><g clip-path="url(#b1ec12e211)"><path fill="#d9d9d9" d="M 170.816406 108.894531 C 138.796875 90.042969 98.105469 113.070312 97.753906 150.246094 C 97.40625 186.546875 135.773438 209.996094 167.722656 194.015625 L 132.839844 142.625 L 132.839844 174.433594 C 132.839844 177.960938 126.105469 177.960938 126.105469 174.433594 L 126.105469 131.789062 C 126.105469 128.992188 131.292969 128.761719 132.765625 131.195312 L 172.527344 191.277344 C 202.394531 172.011719 201.992188 127.25 170.816406 108.894531 Z M 166.324219 169.097656 L 159.570312 158.765625 L 159.570312 130.472656 C 159.570312 127.835938 166.324219 127.835938 166.324219 130.472656 Z M 166.324219 169.097656 " fill-opacity="1" fill-rule="nonzero"/></g></svg>