<svg xmlns="http://www.w3.org/2000/svg" xmlns:xlink="http://www.w3.org/1999/xlink" width="400" zoomAndPan="magnify" viewBox="0 0 300 299.999988" height="400" preserveAspectRatio="xMidYMid meet" version="1.0"><defs><clipPath id="d40170af45"><path d="M 90 125.625 L 210 125.625 L 210 174.375 L 90 174.375 Z M 90 125.625 " clip-rule="nonzero"/></clipPath></defs><g clip-path="url(#d40170af45)"><path fill="#d9d9d9" d="M 90 125.625 L 90 166.875 L 123.75 166.875 L 123.75 174.375 L 150 174.375 L 150 166.875 L 210 166.875 L 210 125.625 Z M 96.664062 132.289062 L 123.339844 132.289062 L 123.339844 161.042969 L 116.667969 161.042969 L 116.667969 138.960938 L 110.003906 138.960938 L 110.003906 161.042969 L 96.664062 161.042969 Z M 130.003906 132.289062 L 156.671875 132.289062 L 156.671875 161.039062 L 143.335938 161.039062 L 143.335938 167.710938 L 130.003906 167.710938 Z M 163.335938 132.289062 L 203.34375 132.289062 L 203.34375 161.042969 L 196.667969 161.042969 L 196.667969 138.960938 L 190.003906 138.960938 L 190.003906 161.042969 L 183.339844 161.042969 L 183.339844 138.960938 L 176.667969 138.960938 L 176.667969 161.042969 L 163.335938 161.042969 Z M 143.335938 138.960938 L 143.335938 154.378906 L 150 154.378906 L 150 138.960938 Z M 143.335938 138.960938 " fill-opacity="1" fill-rule="nonzero"/></g></svg>