<svg xmlns="http://www.w3.org/2000/svg" xmlns:xlink="http://www.w3.org/1999/xlink" width="400" zoomAndPan="magnify" viewBox="0 0 300 299.999988" height="400" preserveAspectRatio="xMidYMid meet" version="1.0"><path fill="#ffffff" d="M 242.023438 61.144531 L 79.335938 61.144531 C 71.867188 61.144531 64.386719 61.015625 56.914062 61.144531 L 56.601562 61.144531 C 56.03125 61.152344 55.46875 61.214844 54.910156 61.332031 C 54.355469 61.449219 53.816406 61.617188 53.289062 61.839844 C 52.765625 62.058594 52.269531 62.328125 51.796875 62.648438 C 51.324219 62.964844 50.886719 63.324219 50.484375 63.726562 C 50.082031 64.128906 49.722656 64.566406 49.402344 65.039062 C 49.085938 65.507812 48.816406 66.007812 48.59375 66.53125 C 48.371094 67.054688 48.203125 67.597656 48.085938 68.152344 C 47.96875 68.710938 47.90625 69.273438 47.898438 69.839844 L 47.898438 103.453125 C 47.90625 104.019531 47.96875 104.582031 48.085938 105.140625 C 48.203125 105.695312 48.375 106.238281 48.59375 106.761719 C 48.816406 107.285156 49.085938 107.785156 49.40625 108.253906 C 49.722656 108.726562 50.082031 109.164062 50.484375 109.566406 C 50.886719 109.96875 51.324219 110.328125 51.796875 110.644531 C 52.269531 110.964844 52.765625 111.234375 53.292969 111.453125 C 53.816406 111.675781 54.355469 111.84375 54.914062 111.960938 C 55.46875 112.078125 56.03125 112.140625 56.601562 112.148438 L 87.332031 112.253906 L 136.371094 112.421875 L 147.6875 112.457031 L 138.988281 103.761719 L 138.988281 193.476562 C 138.988281 197.632812 138.898438 201.800781 138.988281 205.960938 L 138.988281 206.144531 C 138.988281 210.691406 143 215.058594 147.6875 214.839844 C 152.371094 214.621094 156.390625 211.019531 156.390625 206.144531 L 156.390625 116.425781 C 156.390625 112.265625 156.476562 108.097656 156.390625 103.941406 C 156.390625 103.878906 156.390625 103.820312 156.390625 103.761719 C 156.382812 103.191406 156.316406 102.628906 156.199219 102.070312 C 156.082031 101.515625 155.914062 100.972656 155.691406 100.449219 C 155.472656 99.925781 155.203125 99.429688 154.882812 98.957031 C 154.566406 98.484375 154.207031 98.046875 153.804688 97.644531 C 153.402344 97.242188 152.964844 96.882812 152.492188 96.566406 C 152.019531 96.246094 151.519531 95.976562 150.996094 95.757812 C 150.472656 95.535156 149.933594 95.367188 149.375 95.25 C 148.820312 95.132812 148.253906 95.070312 147.6875 95.0625 L 116.957031 94.953125 L 67.914062 94.789062 L 56.601562 94.75 L 65.296875 103.453125 L 65.296875 69.839844 L 56.601562 78.542969 L 219.285156 78.542969 C 226.753906 78.542969 234.238281 78.671875 241.707031 78.542969 C 241.8125 78.542969 241.914062 78.542969 242.023438 78.542969 C 246.570312 78.542969 250.9375 74.53125 250.71875 69.839844 C 250.503906 65.152344 246.90625 61.144531 242.023438 61.144531 Z M 242.023438 61.144531 " fill-opacity="1" fill-rule="nonzero"/><path fill="#ffffff" d="M 55.941406 147.53125 L 75.46875 147.414062 L 106.613281 147.226562 L 113.777344 147.1875 L 105.078125 138.484375 L 105.078125 235.058594 C 105.085938 235.628906 105.148438 236.191406 105.265625 236.746094 C 105.382812 237.304688 105.554688 237.84375 105.773438 238.367188 C 105.996094 238.890625 106.265625 239.390625 106.582031 239.863281 C 106.902344 240.335938 107.261719 240.769531 107.664062 241.171875 C 108.066406 241.574219 108.503906 241.9375 108.972656 242.253906 C 109.445312 242.570312 109.945312 242.839844 110.46875 243.0625 C 110.992188 243.285156 111.53125 243.453125 112.089844 243.570312 C 112.644531 243.6875 113.207031 243.75 113.777344 243.757812 L 183.96875 243.757812 C 184.535156 243.75 185.097656 243.6875 185.65625 243.570312 C 186.214844 243.453125 186.753906 243.285156 187.277344 243.0625 C 187.800781 242.839844 188.300781 242.570312 188.773438 242.253906 C 189.246094 241.9375 189.679688 241.578125 190.085938 241.175781 C 190.488281 240.773438 190.847656 240.335938 191.164062 239.863281 C 191.484375 239.390625 191.753906 238.894531 191.972656 238.367188 C 192.195312 237.84375 192.363281 237.304688 192.480469 236.746094 C 192.597656 236.191406 192.660156 235.628906 192.671875 235.058594 L 192.671875 138.535156 L 183.96875 147.230469 L 202.457031 147.148438 L 231.796875 147.007812 L 238.617188 146.976562 C 239.183594 146.96875 239.746094 146.90625 240.304688 146.789062 C 240.859375 146.671875 241.402344 146.503906 241.925781 146.28125 C 242.449219 146.058594 242.945312 145.789062 243.417969 145.472656 C 243.890625 145.152344 244.328125 144.792969 244.730469 144.390625 C 245.132812 143.988281 245.492188 143.554688 245.808594 143.082031 C 246.125 142.609375 246.394531 142.113281 246.617188 141.589844 C 246.839844 141.0625 247.007812 140.523438 247.125 139.96875 C 247.242188 139.410156 247.304688 138.847656 247.316406 138.28125 L 247.316406 103.667969 C 247.304688 103.097656 247.246094 102.535156 247.128906 101.976562 C 247.011719 101.421875 246.839844 100.878906 246.621094 100.355469 C 246.398438 99.832031 246.128906 99.335938 245.8125 98.863281 C 245.492188 98.390625 245.132812 97.953125 244.730469 97.550781 C 244.328125 97.148438 243.890625 96.789062 243.421875 96.472656 C 242.949219 96.152344 242.449219 95.882812 241.925781 95.664062 C 241.402344 95.441406 240.863281 95.273438 240.304688 95.15625 C 239.75 95.039062 239.183594 94.976562 238.617188 94.96875 L 218.628906 95.03125 L 186.914062 95.128906 L 179.5625 95.152344 C 175.011719 95.152344 170.648438 99.164062 170.859375 103.851562 C 171.074219 108.542969 174.679688 112.570312 179.585938 112.550781 L 199.566406 112.488281 L 231.28125 112.390625 L 238.640625 112.367188 L 229.9375 103.667969 L 229.9375 138.28125 L 238.640625 129.578125 L 220.152344 129.667969 L 190.8125 129.800781 L 183.988281 129.832031 C 183.421875 129.839844 182.859375 129.902344 182.300781 130.019531 C 181.746094 130.136719 181.203125 130.308594 180.679688 130.527344 C 180.15625 130.75 179.660156 131.019531 179.1875 131.339844 C 178.714844 131.65625 178.277344 132.015625 177.875 132.417969 C 177.472656 132.820312 177.113281 133.257812 176.796875 133.730469 C 176.480469 134.203125 176.210938 134.699219 175.988281 135.222656 C 175.765625 135.75 175.597656 136.289062 175.480469 136.84375 C 175.363281 137.402344 175.300781 137.964844 175.292969 138.535156 L 175.292969 235.058594 L 183.988281 226.355469 L 113.777344 226.355469 L 122.480469 235.058594 L 122.480469 138.484375 C 122.472656 137.914062 122.410156 137.351562 122.292969 136.796875 C 122.175781 136.238281 122.007812 135.699219 121.785156 135.175781 C 121.5625 134.648438 121.292969 134.152344 120.976562 133.679688 C 120.65625 133.207031 120.296875 132.769531 119.894531 132.367188 C 119.492188 131.964844 119.054688 131.605469 118.582031 131.289062 C 118.109375 130.972656 117.613281 130.703125 117.089844 130.480469 C 116.5625 130.257812 116.023438 130.089844 115.464844 129.972656 C 114.910156 129.855469 114.347656 129.792969 113.777344 129.785156 L 94.25 129.902344 L 63.105469 130.097656 L 55.941406 130.140625 C 51.390625 130.171875 47.023438 134.125 47.238281 138.839844 C 47.453125 143.558594 51.0625 147.570312 55.941406 147.539062 Z M 55.941406 147.53125 " fill-opacity="1" fill-rule="nonzero"/></svg>