<svg xmlns="http://www.w3.org/2000/svg" xmlns:xlink="http://www.w3.org/1999/xlink" width="400" zoomAndPan="magnify" viewBox="0 0 300 299.999988" height="400" preserveAspectRatio="xMidYMid meet" version="1.0"><path fill="#d9d9d9" d="M 150 139.128906 C 144.070312 139.128906 139.265625 143.949219 139.265625 149.894531 C 139.265625 155.839844 144.070312 160.660156 150 160.660156 C 155.929688 160.660156 160.734375 155.839844 160.734375 149.894531 C 160.734375 143.949219 155.929688 139.128906 150 139.128906 Z M 150 139.128906 " fill-opacity="1" fill-rule="nonzero"/><path fill="#d9d9d9" d="M 112.570312 168.957031 C 113.625 169.308594 114.679688 169.664062 115.761719 169.96875 C 115.410156 171.378906 115.105469 172.765625 114.820312 174.203125 C 112.359375 187.246094 114.28125 197.585938 120.421875 201.136719 C 126.75 204.800781 137.390625 201.039062 147.75 191.945312 C 148.570312 191.21875 149.390625 190.464844 150.210938 189.664062 C 151.238281 190.675781 152.320312 191.640625 153.394531 192.578125 C 163.425781 201.226562 173.339844 204.726562 179.460938 201.179688 C 185.789062 197.515625 187.851562 186.398438 185.179688 172.863281 C 184.96875 171.828125 184.734375 170.773438 184.476562 169.6875 C 185.226562 169.476562 185.949219 169.242188 186.679688 169.007812 C 200.203125 164.519531 210 157.253906 210 149.804688 C 210 142.683594 200.765625 135.773438 188.015625 131.378906 L 188.015625 131.375 C 186.75 130.953125 185.484375 130.550781 184.21875 130.175781 C 184.429688 129.308594 184.621094 128.433594 184.804688 127.566406 C 187.691406 113.558594 185.789062 102.308594 179.390625 98.59375 C 173.226562 95.042969 163.171875 98.734375 153 107.617188 C 151.988281 108.484375 151.011719 109.402344 150.070312 110.320312 C 149.433594 109.707031 148.78125 109.097656 148.125 108.511719 C 137.460938 99.011719 126.773438 95.019531 120.375 98.757812 C 114.234375 102.332031 112.40625 112.933594 114.984375 126.179688 C 115.246094 127.496094 115.523438 128.785156 115.851562 130.105469 C 114.351562 130.527344 112.875 130.996094 111.488281 131.492188 C 98.976562 135.839844 90 142.703125 90 149.804688 C 90 157.140625 99.558594 164.488281 112.570312 168.957031 Z M 144.445312 188.105469 C 140.578125 191.65625 136.101562 194.472656 131.226562 196.402344 C 128.625 197.644531 125.625 197.765625 122.949219 196.707031 C 119.226562 194.546875 117.675781 186.25 119.785156 175.082031 C 120.046875 173.769531 120.324219 172.453125 120.648438 171.15625 C 125.898438 172.285156 131.195312 173.0625 136.566406 173.460938 C 139.660156 177.855469 143.054688 182.0625 146.691406 186.007812 C 145.941406 186.734375 145.191406 187.441406 144.441406 188.101562 Z M 174.210938 143.972656 C 173.109375 141.902344 171.984375 139.835938 170.808594 137.816406 C 169.660156 135.820312 168.464844 133.84375 167.226562 131.894531 C 171 132.367188 174.609375 132.996094 177.984375 133.773438 C 176.90625 137.253906 175.640625 140.640625 174.210938 143.972656 Z M 174.253906 155.675781 C 175.753906 159.085938 177.070312 162.539062 178.214844 166.089844 C 174.578125 166.910156 170.90625 167.546875 167.199219 167.96875 C 168.464844 165.992188 169.660156 163.972656 170.835938 161.953125 C 172.03125 159.882812 173.15625 157.792969 174.253906 155.675781 Z M 171.546875 149.828125 C 169.976562 153.074219 168.285156 156.265625 166.484375 159.414062 C 164.703125 162.539062 162.804688 165.574219 160.816406 168.582031 C 157.324219 168.839844 153.691406 168.957031 150.011719 168.957031 C 146.328125 168.957031 142.769531 168.839844 139.324219 168.625 C 137.285156 165.644531 135.363281 162.585938 133.558594 159.460938 C 131.753906 156.335938 130.089844 153.164062 128.519531 149.917969 L 128.511719 149.917969 C 130.054688 146.675781 131.746094 143.5 133.523438 140.378906 C 135.304688 137.253906 137.230469 134.222656 139.246094 131.238281 C 142.761719 130.976562 146.34375 130.835938 150.003906 130.835938 C 153.664062 130.835938 157.269531 130.976562 160.765625 131.238281 C 162.753906 134.199219 164.65625 137.230469 166.460938 140.332031 C 168.265625 143.4375 169.949219 146.609375 171.546875 149.828125 Z M 129.160156 137.859375 C 128.011719 139.855469 126.886719 141.898438 125.828125 143.96875 C 124.355469 140.46875 123.109375 137.039062 122.078125 133.722656 C 125.453125 132.972656 129.039062 132.359375 132.765625 131.890625 C 131.53125 133.839844 130.308594 135.835938 129.160156 137.859375 Z M 125.835938 155.859375 C 126.914062 157.929688 128.015625 159.976562 129.183594 161.996094 C 130.378906 164.042969 131.601562 166.089844 132.890625 168.085938 C 129.234375 167.683594 125.601562 167.097656 122.015625 166.320312 C 123.046875 162.933594 124.335938 159.4375 125.835938 155.859375 Z M 150.191406 182.390625 C 147.800781 179.808594 145.410156 176.945312 143.089844 173.859375 C 145.339844 173.957031 147.660156 174 150.003906 174 C 152.421875 174 154.785156 173.957031 157.128906 173.835938 C 154.976562 176.820312 152.65625 179.667969 150.191406 182.390625 Z M 180.824219 189.449219 C 180.609375 192.3125 179.203125 194.988281 176.953125 196.800781 C 173.230469 198.960938 165.285156 196.140625 156.703125 188.761719 C 155.71875 187.914062 154.734375 186.996094 153.730469 186.058594 C 157.316406 182.089844 160.621094 177.882812 163.621094 173.464844 C 168.984375 173.019531 174.328125 172.195312 179.605469 170.996094 C 179.839844 171.960938 180.050781 172.921875 180.238281 173.867188 C 181.390625 178.945312 181.574219 184.230469 180.824219 189.449219 Z M 182.859375 135.019531 C 184.078125 135.367188 185.25 135.746094 186.375 136.121094 C 197.296875 139.882812 204.960938 145.476562 204.960938 149.753906 C 204.960938 154.363281 196.78125 160.308594 185.085938 164.183594 C 184.429688 164.394531 183.773438 164.605469 183.09375 164.796875 C 181.453125 159.671875 179.441406 154.667969 177.121094 149.800781 C 179.371094 145.003906 181.269531 140.066406 182.859375 135.019531 Z M 156.300781 111.421875 C 165.023438 103.8125 173.15625 100.828125 176.859375 102.964844 C 180.820312 105.246094 182.34375 114.457031 179.859375 126.558594 C 179.695312 127.355469 179.53125 128.132812 179.320312 128.910156 C 174.113281 127.738281 168.84375 126.890625 163.546875 126.417969 C 160.5 122.042969 157.171875 117.859375 153.558594 113.933594 C 154.476562 113.066406 155.363281 112.246094 156.300781 111.421875 Z M 150.050781 117.535156 C 152.511719 120.210938 154.828125 123.03125 156.984375 125.941406 C 152.34375 125.734375 147.679688 125.734375 143.039062 125.941406 C 145.335938 122.914062 147.703125 120.097656 150.050781 117.535156 Z M 122.859375 103.128906 C 126.800781 100.828125 135.539062 104.117188 144.75 112.296875 C 145.335938 112.8125 145.921875 113.378906 146.53125 113.941406 C 142.894531 117.859375 139.546875 122.042969 136.476562 126.414062 C 131.179688 126.886719 125.929688 127.707031 120.726562 128.859375 C 120.421875 127.664062 120.164062 126.441406 119.90625 125.214844 C 117.699219 113.839844 119.15625 105.265625 122.859375 103.128906 Z M 113.136719 136.261719 C 114.46875 135.789062 115.828125 135.367188 117.191406 134.96875 C 118.785156 140.066406 120.703125 145.074219 122.929688 149.914062 C 120.679688 154.828125 118.734375 159.902344 117.121094 165.070312 L 117.113281 165.078125 C 116.128906 164.796875 115.171875 164.488281 114.210938 164.160156 C 109.21875 162.585938 103.546875 160.09375 99.445312 156.828125 C 97.078125 155.183594 95.484375 152.648438 95.039062 149.800781 C 95.039062 145.496094 102.445312 139.996094 113.136719 136.261719 Z M 113.136719 136.261719 " fill-opacity="1" fill-rule="nonzero"/></svg>