<svg xmlns="http://www.w3.org/2000/svg" xmlns:xlink="http://www.w3.org/1999/xlink" width="400" zoomAndPan="magnify" viewBox="0 0 300 299.999988" height="400" preserveAspectRatio="xMidYMid meet" version="1.0"><path fill="#d9d9d9" d="M 133.105469 110.503906 C 137.386719 105.101562 145.449219 102.433594 150.941406 102.296875 C 166.351562 102 172.777344 121.378906 173.269531 129.085938 L 180.40625 131.242188 C 178.761719 107.625 164.214844 95.238281 150.296875 95.238281 C 137.242188 95.234375 125.191406 104.8125 120.332031 118.855469 C 113.699219 137.578125 118.050781 155.578125 126.1875 169.984375 C 125.476562 170.921875 125.046875 172.574219 125.191406 174.15625 C 125.328125 178.480469 128.964844 182.078125 133.324219 182.078125 L 133.609375 182.078125 C 138.175781 181.9375 141.671875 178.121094 141.457031 173.582031 C 141.457031 169.257812 137.746094 165.667969 133.394531 165.667969 L 133.105469 165.667969 C 132.820312 165.667969 132.394531 165.667969 132.035156 165.804688 C 126.113281 155.722656 123.613281 144.917969 124.546875 133.261719 C 125.113281 124.472656 127.972656 116.839844 133.105469 110.503906 Z M 133.105469 110.503906 " fill-opacity="1" fill-rule="nonzero"/><path fill="#d9d9d9" d="M 98.722656 192.242188 C 103.503906 199.441406 113.28125 204.046875 123.980469 204.046875 C 126.832031 204.046875 129.832031 203.835938 132.757812 203.113281 C 151.308594 199.515625 165.367188 188.28125 173.429688 171.722656 L 173.496094 171.574219 C 177.632812 171.210938 180.84375 167.535156 180.632812 163.140625 C 180.414062 158.746094 176.847656 155.222656 172.5 155.222656 L 172.210938 155.222656 C 167.71875 155.371094 164.21875 159.183594 164.363281 163.726562 C 164.503906 166.027344 165.4375 167.902344 166.714844 169.265625 C 161.722656 179.0625 154.234375 186.257812 142.886719 192.3125 C 135.253906 196.34375 127.191406 197.859375 119.34375 196.78125 C 112.78125 195.847656 107.648438 192.882812 104.503906 188.136719 C 99.800781 180.933594 99.371094 173.160156 103.289062 165.386719 C 106.152344 159.769531 110.429688 155.664062 113.285156 153.644531 C 112.570312 151.773438 111.714844 148.609375 111.285156 146.234375 C 90.15625 161.496094 92.304688 182.375 98.722656 192.242188 Z M 98.722656 192.242188 " fill-opacity="1" fill-rule="nonzero"/><path fill="#d9d9d9" d="M 206.023438 189.066406 C 210.300781 180.425781 209.949219 165.878906 199.027344 153.421875 L 198.960938 153.5625 C 187.910156 140.457031 171.636719 133.253906 153.082031 133.253906 L 150.652344 133.253906 C 149.449219 130.59375 146.667969 128.933594 143.523438 128.933594 L 143.308594 128.933594 C 138.820312 128.933594 135.320312 132.828125 135.464844 137.359375 C 135.609375 141.679688 139.246094 145.285156 143.601562 145.285156 L 143.953125 145.285156 C 147.167969 145.140625 149.949219 143.121094 151.085938 140.242188 L 153.730469 140.242188 C 164.722656 140.242188 175.132812 143.480469 184.628906 149.816406 C 191.898438 154.644531 197.113281 160.976562 200.039062 168.539062 C 202.601562 174.730469 202.460938 180.78125 199.824219 185.828125 C 195.757812 193.746094 188.90625 197.925781 179.847656 197.925781 C 174.136719 197.925781 168.578125 196.125 165.71875 194.828125 C 164.007812 196.261719 161.152344 198.640625 159.082031 200.085938 C 165.355469 202.957031 171.710938 204.617188 177.84375 204.617188 C 191.757812 204.617188 202.09375 196.703125 206.023438 189.066406 Z M 206.023438 189.066406 " fill-opacity="1" fill-rule="nonzero"/></svg>