<svg width="1440" height="932" viewBox="0 0 1440 932" fill="none" xmlns="http://www.w3.org/2000/svg">
<g opacity="0.4" filter="url(#filter0_f)">
<path d="M227 558.182L262.918 1026.46L1188.5 1093L1241 662.244L1003.39 524.162L776.135 251L499.841 524.162L227 558.182Z" fill="url(#paint0_radial)"/>
<path d="M227 558.182L262.918 1026.46L1188.5 1093L1241 662.244L1003.39 524.162L776.135 251L499.841 524.162L227 558.182Z" stroke="black"/>
<path d="M227 558.182L262.918 1026.46L1188.5 1093L1241 662.244L1003.39 524.162L776.135 251L499.841 524.162L227 558.182Z" stroke="url(#paint1_linear)"/>
</g>
<defs>
<filter id="filter0_f" x="-23.535" y="0.261475" width="1515.07" height="1343.27" filterUnits="userSpaceOnUse" color-interpolation-filters="sRGB">
<feFlood flood-opacity="0" result="BackgroundImageFix"/>
<feBlend mode="normal" in="SourceGraphic" in2="BackgroundImageFix" result="shape"/>
<feGaussianBlur stdDeviation="125" result="effect1_foregroundBlur"/>
</filter>
<radialGradient id="paint0_radial" cx="0" cy="0" r="1" gradientUnits="userSpaceOnUse" gradientTransform="translate(232.423 413.063) rotate(28.2522) scale(1053.01 962.608)">
<stop stop-color="#0099FF"/>
<stop offset="0.609754" stop-color="#A033FF"/>
<stop offset="0.934823" stop-color="#FF5280"/>
<stop offset="1" stop-color="#FF7061"/>
</radialGradient>
<linearGradient id="paint1_linear" x1="1232.71" y1="672" x2="113.029" y2="672" gradientUnits="userSpaceOnUse">
<stop stop-color="white"/>
<stop offset="1" stop-color="white" stop-opacity="0"/>
</linearGradient>
</defs>
</svg>
