<svg xmlns="http://www.w3.org/2000/svg" xmlns:xlink="http://www.w3.org/1999/xlink" width="400" zoomAndPan="magnify" viewBox="0 0 300 299.999988" height="400" preserveAspectRatio="xMidYMid meet" version="1.0"><path fill="#d9d9d9" d="M 152.132812 191.6875 C 135.90625 191.6875 128.101562 183.914062 122.402344 178.238281 C 120.304688 175.621094 117.699219 173.675781 114.589844 172.410156 C 111.175781 171.574219 106.570312 171.515625 101.285156 178.429688 C 100.867188 178.972656 100.371094 179.433594 99.796875 179.808594 C 99.222656 180.179688 98.601562 180.449219 97.933594 180.609375 C 97.265625 180.765625 96.589844 180.808594 95.90625 180.734375 C 95.226562 180.660156 94.574219 180.472656 93.957031 180.175781 C 93.339844 179.875 92.789062 179.484375 92.308594 178.992188 C 91.828125 178.503906 91.441406 177.949219 91.152344 177.328125 C 90.863281 176.703125 90.683594 176.050781 90.621094 175.367188 C 90.558594 174.683594 90.609375 174.011719 90.78125 173.34375 C 95.167969 156.125 106.777344 147.023438 124.34375 147.023438 C 140.570312 147.023438 148.375 154.792969 154.074219 160.46875 C 156.171875 163.089844 158.777344 165.03125 161.886719 166.300781 C 165.304688 167.132812 169.90625 167.191406 175.191406 160.28125 C 175.609375 159.734375 176.101562 159.277344 176.679688 158.902344 C 177.253906 158.527344 177.875 158.261719 178.542969 158.101562 C 179.210938 157.941406 179.886719 157.898438 180.570312 157.972656 C 181.25 158.046875 181.902344 158.234375 182.519531 158.535156 C 183.136719 158.832031 183.6875 159.226562 184.167969 159.714844 C 184.648438 160.207031 185.035156 160.761719 185.324219 161.382812 C 185.613281 162.003906 185.792969 162.660156 185.855469 163.34375 C 185.917969 164.023438 185.867188 164.699219 185.695312 165.363281 C 181.308594 182.585938 169.699219 191.6875 152.132812 191.6875 Z M 114.9375 160.363281 C 115.773438 160.480469 116.605469 160.640625 117.425781 160.84375 C 120.035156 161.667969 122.476562 162.839844 124.75 164.363281 C 127.023438 165.886719 129.039062 167.695312 130.792969 169.796875 C 135.957031 174.933594 140.824219 179.777344 152.132812 179.777344 C 155.351562 179.84375 158.484375 179.367188 161.539062 178.347656 C 160.703125 178.226562 159.871094 178.066406 159.050781 177.863281 C 156.441406 177.042969 154 175.867188 151.726562 174.347656 C 149.453125 172.824219 147.4375 171.011719 145.683594 168.914062 C 140.519531 163.777344 135.652344 158.933594 124.34375 158.933594 C 121.125 158.867188 117.992188 159.34375 114.9375 160.363281 Z M 175.953125 152.976562 C 159.726562 152.976562 151.917969 145.199219 146.214844 139.523438 C 144.117188 136.90625 141.515625 134.964844 138.410156 133.699219 C 134.996094 132.863281 130.390625 132.808594 125.105469 139.71875 C 124.691406 140.265625 124.195312 140.722656 123.617188 141.097656 C 123.042969 141.472656 122.421875 141.738281 121.753906 141.898438 C 121.085938 142.058594 120.410156 142.101562 119.730469 142.027344 C 119.046875 141.953125 118.398438 141.765625 117.777344 141.464844 C 117.160156 141.167969 116.609375 140.773438 116.128906 140.285156 C 115.648438 139.792969 115.261719 139.238281 114.972656 138.617188 C 114.683594 137.996094 114.507812 137.339844 114.441406 136.65625 C 114.378906 135.976562 114.433594 135.300781 114.601562 134.636719 C 118.992188 117.414062 130.597656 108.3125 148.164062 108.3125 C 164.390625 108.3125 172.195312 116.085938 177.894531 121.761719 C 179.996094 124.378906 182.597656 126.324219 185.707031 127.589844 C 189.125 128.421875 193.726562 128.484375 199.011719 121.570312 C 199.429688 121.027344 199.925781 120.566406 200.5 120.191406 C 201.074219 119.816406 201.695312 119.550781 202.363281 119.390625 C 203.03125 119.234375 203.707031 119.191406 204.390625 119.265625 C 205.074219 119.339844 205.722656 119.527344 206.339844 119.824219 C 206.957031 120.125 207.507812 120.515625 207.988281 121.007812 C 208.472656 121.496094 208.855469 122.050781 209.144531 122.671875 C 209.4375 123.296875 209.613281 123.949219 209.675781 124.632812 C 209.738281 125.316406 209.6875 125.988281 209.519531 126.65625 C 205.128906 143.875 193.523438 152.976562 175.953125 152.976562 Z M 138.757812 121.652344 C 139.597656 121.773438 140.425781 121.933594 141.246094 122.136719 C 143.855469 122.957031 146.296875 124.132812 148.570312 125.652344 C 150.84375 127.175781 152.859375 128.988281 154.617188 131.085938 C 159.550781 136.003906 164.648438 141.066406 175.953125 141.066406 C 179.171875 141.132812 182.308594 140.65625 185.359375 139.636719 C 184.523438 139.519531 183.695312 139.359375 182.875 139.15625 C 180.265625 138.332031 177.820312 137.160156 175.546875 135.636719 C 173.273438 134.113281 171.257812 132.304688 169.503906 130.203125 C 164.339844 125.066406 159.472656 120.222656 148.164062 120.222656 C 144.949219 120.15625 141.8125 120.632812 138.757812 121.652344 Z M 138.757812 121.652344 " fill-opacity="1" fill-rule="nonzero"/></svg>