<svg xmlns="http://www.w3.org/2000/svg" xmlns:xlink="http://www.w3.org/1999/xlink" width="400" zoomAndPan="magnify" viewBox="0 0 300 299.999988" height="400" preserveAspectRatio="xMidYMid meet" version="1.0"><path fill="#737373" d="M 90 210 L 210 210 L 210 90 L 90 90 Z M 90 210 " fill-opacity="1" fill-rule="nonzero"/><path fill="#ffffff" d="M 116.53125 150.394531 L 116.492188 155.3125 L 132.113281 155.3125 L 132.113281 199.691406 L 143.160156 199.691406 L 143.160156 155.3125 L 158.78125 155.3125 L 158.78125 150.492188 C 158.78125 147.824219 158.722656 145.59375 158.648438 145.539062 C 158.589844 145.460938 149.085938 145.425781 137.558594 145.445312 L 116.585938 145.5 Z M 116.53125 150.394531 " fill-opacity="1" fill-rule="nonzero"/><path fill="#ffffff" d="M 186.828125 145.363281 C 189.875 146.125 192.203125 147.476562 194.335938 149.6875 C 195.4375 150.867188 197.078125 153.019531 197.207031 153.535156 C 197.246094 153.6875 192.027344 157.191406 188.863281 159.15625 C 188.75 159.230469 188.296875 158.734375 187.78125 157.972656 C 186.238281 155.722656 184.617188 154.753906 182.140625 154.585938 C 178.503906 154.335938 176.160156 156.238281 176.179688 159.421875 C 176.179688 160.355469 176.316406 160.90625 176.695312 161.667969 C 177.496094 163.328125 178.984375 164.316406 183.648438 166.335938 C 192.238281 170.03125 195.914062 172.46875 198.203125 175.9375 C 200.75 179.804688 201.324219 185.972656 199.589844 190.5625 C 197.6875 195.554688 192.960938 198.941406 186.3125 200.066406 C 184.257812 200.429688 179.382812 200.371094 177.167969 199.972656 C 172.351562 199.117188 167.78125 196.734375 164.960938 193.613281 C 163.855469 192.394531 161.703125 189.210938 161.835938 188.980469 C 161.898438 188.90625 162.390625 188.601562 162.941406 188.277344 C 163.476562 187.972656 165.496094 186.8125 167.398438 185.703125 L 170.84375 183.707031 L 171.570312 184.773438 C 172.578125 186.3125 174.792969 188.429688 176.125 189.136719 C 179.953125 191.152344 185.207031 190.867188 187.800781 188.546875 C 188.90625 187.53125 189.359375 186.488281 189.359375 184.945312 C 189.359375 183.554688 189.191406 182.945312 188.464844 181.898438 C 187.53125 180.5625 185.628906 179.4375 180.21875 177.097656 C 174.027344 174.429688 171.359375 172.773438 168.921875 170.140625 C 167.511719 168.617188 166.179688 166.179688 165.628906 164.140625 C 165.167969 162.449219 165.054688 158.203125 165.417969 156.488281 C 166.695312 150.507812 171.210938 146.335938 177.722656 145.097656 C 179.835938 144.699219 184.753906 144.847656 186.828125 145.363281 Z M 186.828125 145.363281 " fill-opacity="1" fill-rule="nonzero"/></svg>