<svg xmlns="http://www.w3.org/2000/svg" xmlns:xlink="http://www.w3.org/1999/xlink" width="500" zoomAndPan="magnify" viewBox="0 0 375 374.999991" height="500" preserveAspectRatio="xMidYMid meet" version="1.0"><defs><clipPath id="69d6ee305f"><path d="M 119 112.5 L 256.78125 112.5 L 256.78125 262.5 L 119 262.5 Z M 119 112.5 " clip-rule="nonzero"/></clipPath></defs><g clip-path="url(#69d6ee305f)"><path fill="#d9d9d9" d="M 189.882812 159.113281 C 189.621094 158.296875 189.105469 157.59375 188.414062 157.035156 L 210.84375 118.644531 C 211.917969 118.734375 212.996094 118.226562 213.574219 117.238281 C 214.375 115.867188 213.914062 114.101562 212.539062 113.300781 C 211.167969 112.5 209.40625 112.960938 208.601562 114.335938 C 208.023438 115.324219 208.109375 116.511719 208.714844 117.398438 L 186.199219 155.9375 C 185.121094 155.640625 183.90625 155.578125 182.65625 155.816406 C 181.40625 156.050781 180.292969 156.554688 179.398438 157.21875 L 144.386719 129.539062 C 144.625 128.492188 144.273438 127.351562 143.375 126.644531 C 142.128906 125.65625 140.316406 125.867188 139.332031 127.117188 C 138.347656 128.363281 138.558594 130.171875 139.804688 131.160156 C 140.703125 131.871094 141.890625 131.949219 142.855469 131.476562 L 177.738281 159.050781 C 177.292969 159.820312 177.070312 160.667969 177.128906 161.523438 L 129.085938 170.585938 C 122.3125 171.867188 118.089844 178.675781 119.957031 185.308594 L 144.679688 262.519531 L 131.886719 190.964844 C 130.980469 185.054688 134.664062 179.402344 140.4375 177.847656 L 256.933594 146.460938 L 189.882812 159.113281 " fill-opacity="1" fill-rule="nonzero"/></g><path fill="#d9d9d9" d="M 195.082031 198.714844 L 183.917969 198.714844 L 183.917969 230.679688 L 175.074219 230.679688 L 175.074219 198.714844 L 163.964844 198.714844 L 163.964844 191.535156 L 195.082031 191.535156 L 195.082031 198.714844 " fill-opacity="1" fill-rule="nonzero"/><path fill="#d9d9d9" d="M 234.789062 191.535156 L 221.304688 230.679688 L 211.316406 230.679688 L 197.992188 191.535156 L 207.496094 191.535156 L 215.65625 218.777344 C 216.09375 220.25 216.355469 221.550781 216.449219 222.679688 L 216.609375 222.679688 C 216.738281 221.460938 217.019531 220.125 217.457031 218.667969 L 225.566406 191.535156 L 234.789062 191.535156 " fill-opacity="1" fill-rule="nonzero"/></svg>