<svg xmlns="http://www.w3.org/2000/svg" xmlns:xlink="http://www.w3.org/1999/xlink" width="500" zoomAndPan="magnify" viewBox="0 0 375 374.999991" height="500" preserveAspectRatio="xMidYMid meet" version="1.0"><defs><clipPath id="e8e0060231"><path d="M 93.664062 93.664062 L 281.164062 93.664062 L 281.164062 281.164062 L 93.664062 281.164062 Z M 93.664062 93.664062 " clip-rule="nonzero"/></clipPath></defs><g clip-path="url(#e8e0060231)"><path fill="#bfbdbc" d="M 281.164062 187.414062 C 281.164062 239.191406 239.191406 281.164062 187.414062 281.164062 C 135.640625 281.164062 93.667969 239.191406 93.667969 187.414062 C 93.667969 135.640625 135.640625 93.667969 187.414062 93.667969 C 239.191406 93.667969 281.164062 135.640625 281.164062 187.414062 " fill-opacity="1" fill-rule="nonzero"/></g><path fill="#ffffff" d="M 220.71875 157.78125 C 220.71875 176.238281 205.753906 191.199219 187.296875 191.199219 C 168.835938 191.199219 153.875 176.238281 153.875 157.78125 C 153.875 139.320312 168.835938 124.359375 187.296875 124.359375 C 205.753906 124.359375 220.71875 139.320312 220.71875 157.78125 " fill-opacity="1" fill-rule="nonzero"/><path fill="#ffffff" d="M 187.296875 276.714844 C 210.945312 276.714844 232.546875 267.953125 249.039062 253.503906 C 243.917969 220.070312 228.84375 196.871094 187.296875 196.871094 C 146.914062 196.871094 131.28125 220.171875 125.792969 253.714844 C 142.253906 268.039062 163.761719 276.714844 187.296875 276.714844 " fill-opacity="1" fill-rule="nonzero"/></svg>